<?xml version="1.0" encoding="utf-8" ?>
<svg baseProfile="full" height="200mm" version="1.1" viewBox="0,0,200,200" width="200mm" xmlns="http://www.w3.org/2000/svg" xmlns:ev="http://www.w3.org/2001/xml-events" xmlns:xlink="http://www.w3.org/1999/xlink"><defs /><rect fill="#1a1a1a" height="200" width="200" x="0" y="0" /><text alignment-baseline="middle" fill="#e1ed5e" style="dominant-baseline: central; font-size:9.0px; font-family:Arial;" text-anchor="middle" x="100.0" y="100.0">2024</text><line stroke="#e1ed5e" stroke-width="0.3" x1="100.0" x2="100.0" y1="15.0" y2="10.0" /><path d="M 100.0 14.0 a86.0,86.0 0 0,1 42.35913384403234,11.155469271406648" fill="none" id="id37" stroke="none" /><text fill="#e1ed5e" style="font-size:6.75px; font-family:Arial;" text-anchor="middle"><textPath startOffset="22.145653131862478" xlink:href="#id37">January</textPath></text><path d="M 100.36049292484886 79.00309439819443 l 0.7202093789877186 -41.948585677459455 a62.95476780878114,62.95476780878114 0 0,0 1.0803838159072672,0.0278268547125423 l -1.4402065089657272 41.93004110539687" fill="#edff19" stroke="none" /><path d="M 101.08105385017728 79.02784411241856 l 1.6304808972254474 -31.630893819700383 a52.67288922389899,52.67288922389899 0 0,0 0.9026017465105339,0.05429827971221527 l -2.173226995868444 31.598243562163475" fill="#ff0400" stroke="none" /><path d="M 102.15924093988457 79.11130261209362 l 3.2821008144056827 -31.751348097533974 a52.9205308816551,52.9205308816551 0 0,0 0.9028345849106362,0.10116449837197176 l -3.826671300917116 31.69032783865503" fill="#ff0b01" stroke="none" /><path d="M 102.87502721639298 79.19773525538626 l 4.417206088686441 -31.960702828983298 a53.264504257039334,53.264504257039334 0 0,0 0.9046719728923179,0.13295562592481477 l -4.9652031671864405 31.880166129759598" fill="#ff1502" stroke="none" /><path d="M 103.58742460773223 79.30868818359171 l 5.476289072615609 -31.585780103657232 a53.05699996511586,53.05699996511586 0 0,0 0.8960702395052167,0.16329384730804242 l -6.017694045671879 31.487118082417823" fill="#ff0f01" stroke="none" /><path d="M 104.29559338865022 79.4440306129975 l 11.793671969787232 -56.43698973274416 a78.6560882181996,78.6560882181996 0 0,0 1.3193157348652773,0.28753872387698887 l -12.760750121271643 56.22621955073345" fill="#40ffc6" stroke="none" /><path d="M 104.9986988182912 79.60360301121754 l 7.597900359542108 -31.002026256786994 a52.919488120896304,52.919488120896304 0 0,0 0.8804661445077517,0.2238110508977958 l -8.128971797275256 30.86702997405393" fill="#ff0b01" stroke="none" /><path d="M 105.69591212413111 79.78721728523813 l 8.676831073057118 -30.79101245073221 a52.990214835344815,52.990214835344815 0 0,0 0.8734301098572559,0.2542427754726361 l -9.204121195295977 30.637525980957058" fill="#ff0d01" stroke="none" /><path d="M 106.38641147887787 79.99465700312896 l 9.782011256558363 -30.642010937429855 a53.165518471074044,53.165518471074044 0 0,0 0.8670467246434201,0.28501548012653904 l -10.306580718849526 30.469574535901295" fill="#ff1202" stroke="none" /><path d="M 106.72888874123014 80.10723608172694 l 20.13643313098369 -59.529786542067406 a83.84322895095929,83.84322895095929 0 0,0 1.359435024329031,0.4728820693077216 l -21.15537392735774 59.175346040191094" fill="#4dd5ff" stroke="none" /><path d="M 107.40779381753099 80.34994680014964 l 11.318580957687589 -30.023880718578592 a53.08650321083872,53.08650321083872 0 0,0 0.8499597555576417,0.32878269266486077 l -11.832312975738756 29.825158137775695" fill="#ff1001" stroke="none" /><path d="M 108.07796709384702 80.6158196554323 l 12.409835213197482 -29.77908686979137 a53.26140147013606,53.26140147013606 0 0,0 0.8409339321315815,0.3589446906043938 l -12.919204220499493 29.561667529527575" fill="#ff1502" stroke="none" /><path d="M 108.73861861582097 80.90454125486305 l 13.193515961512123 -28.830213426437776 a52.70567882321128,52.70567882321128 0 0,0 0.8194761418496236,0.3835562121617273 l -13.686480817233251 28.599480982705515" fill="#ff0500" stroke="none" /><path d="M 109.3889696526874 81.21577127319529 l 28.166908958062173 -56.352686180414125 a84.0,84.0 0 0,0 1.2842911131456847,0.6557681933086643 l -29.130127292921436 55.86086003543262" fill="#4dd2ff" stroke="none" /><path d="M 110.02825361518725 81.54914285379988 l 20.161571821229817 -37.09502130590251 a63.22001402164582,63.22001402164582 0 0,0 0.9490703259607941,0.5264333113448015 l -20.795386335346713 36.743455079124566" fill="#e7ff1a" stroke="none" /><line stroke="#e1ed5e" stroke-width="0.3" x1="143.13028292997686" x2="145.6673583964461" y1="26.7553504044142" y2="22.446841604673864" /><path d="M 143.63769802327073 25.89364864446614 a86.0,86.0 0 0,1 29.32050498858742,28.57503671076993" fill="none" id="id38" stroke="none" /><text fill="#e1ed5e" style="font-size:6.75px; font-family:Arial;" text-anchor="middle"><textPath startOffset="20.669276256404974" xlink:href="#id38">February</textPath></text><path d="M 110.65571695917076 81.90426304109057 l 16.15542446714636 -27.435442658356877 a52.83867543685917,52.83867543685917 0 0,0 0.7776525602107844,0.4669580186336946 l -16.62400978391458 27.15407063918726" fill="#ff0901" stroke="none" /><path d="M 111.8722381534696 82.67804972795209 l 17.971344166041536 -26.22072821838184 a52.78829657966216,52.78829657966216 0 0,0 0.743070457024929,0.5187208887633231 l -18.418809714240226 25.90836251381339" fill="#ff0701" stroke="none" /><path d="M 112.45986205192187 83.09580414077388 l 18.713568320856147 -25.38854947210013 a52.54007107786263,52.54007107786263 0 0,0 0.7214177360817895,0.5413653184497959 l -19.146639045848705 25.06356512638632" fill="#ff0000" stroke="none" /><path d="M 116.1254893667686 86.54754324733833 l 24.247874636787987 -20.228439427554473 a52.57766910453694,52.57766910453694 0 0,0 0.5722282624219456,0.6980254371407819 l -24.59154971844856 19.809211708715196" fill="#ff0100" stroke="none" /><path d="M 116.57777611688842 87.10902102172516 l 25.209217275731184 -19.602839830196103 a52.93393124974353,52.93393124974353 0 0,0 0.5516421992794972,0.7221173468093556 l -25.54201145236499 19.167201570145867" fill="#ff0b01" stroke="none" /><path d="M 117.21940702142032 87.97951657250589 l 26.146997261805403 -18.25263476688184 a52.88768009344742,52.88768009344742 0 0,0 0.5132881904320198,0.7489028096437383 l -26.45647518905275 17.801097222168053" fill="#ff0a01" stroke="none" /><path d="M 117.42321728460499 88.27688183743584 l 26.284903814437623 -17.68565634433983 a52.68088712243275,52.68088712243275 0 0,0 0.4984002289144435,0.7546414701607874 l -26.58462848227279 17.231834995839982" fill="#ff0400" stroke="none" /><path d="M 117.62189284568427 88.57770195909679 l 26.548938794416483 -17.2087013713621 a52.638355741068345,52.638355741068345 0 0,0 0.4849805037047377,0.7624699049444006 l -26.84043698974711 16.750417791739025" fill="#ff0300" stroke="none" /><line stroke="#e1ed5e" stroke-width="0.3" x1="172.87174338648825" x2="177.1583165268699" y1="56.24261187166439" y2="53.66864786411523" /><path d="M 173.72905801456457 55.72781907015455 a86.0,86.0 0 0,1 12.242430191666344,42.057860355516425" fill="none" id="id39" stroke="none" /><text fill="#e1ed5e" style="font-size:6.75px; font-family:Arial;" text-anchor="middle"><textPath startOffset="22.145653131862474" xlink:href="#id39">March</textPath></text><line stroke="#e1ed5e" stroke-width="0.3" x1="184.99686870605535" x2="189.99668451229388" y1="99.2704041080226" y2="99.22748670261217" /><path d="M 185.99683186730306 99.26182062694052 a86.0,86.0 0 0,1 -10.086455211305974,41.156179273409016" fill="none" id="id40" stroke="none" /><text fill="#e1ed5e" style="font-size:6.75px; font-family:Arial;" text-anchor="middle"><textPath startOffset="21.40746469413373" xlink:href="#id40">April</textPath></text><line stroke="#e1ed5e" stroke-width="0.3" x1="174.33088141563837" x2="178.70328620479359" y1="141.23008692659167" y2="143.65538615756765" /><path d="M 175.20536237346943 141.71514677278685 a86.0,86.0 0 0,1 -30.301960400862466,31.631185727798858" fill="none" id="id41" stroke="none" /><text fill="#e1ed5e" style="font-size:6.75px; font-family:Arial;" text-anchor="middle"><textPath startOffset="22.145653131862474" xlink:href="#id41">May</textPath></text><line stroke="#e1ed5e" stroke-width="0.3" x1="143.1302829299769" x2="145.66735839644613" y1="173.24464959558577" y2="177.55315839532614" /><path d="M 143.63769802327073 174.10635135553383 a86.0,86.0 0 0,1 -40.68552437913181,11.842963189579606" fill="none" id="id42" stroke="none" /><text fill="#e1ed5e" style="font-size:6.75px; font-family:Arial;" text-anchor="middle"><textPath startOffset="21.407464694133747" xlink:href="#id42">June</textPath></text><line stroke="#e1ed5e" stroke-width="0.3" x1="101.45913802915013" x2="101.54496967792366" y1="184.9874750549273" y2="189.98673829345242" /><path d="M 101.47630435890484 185.9873277026323 a86.0,86.0 0 0,1 -42.54439059252881,-10.42667462771756" fill="none" id="id43" stroke="none" /><text fill="#e1ed5e" style="font-size:6.75px; font-family:Arial;" text-anchor="middle"><textPath startOffset="22.145653131862474" xlink:href="#id43">July</textPath></text><line stroke="#e1ed5e" stroke-width="0.3" x1="58.13341422392154" x2="55.67067388415222" y1="173.97424548756322" y2="178.32567169271397" /><path d="M 57.64086615596768 174.84453072859336 a86.0,86.0 0 0,1 -31.369924170532247,-30.572349798747897" fill="none" id="id44" stroke="none" /><text fill="#e1ed5e" style="font-size:6.75px; font-family:Arial;" text-anchor="middle"><textPath startOffset="22.145653131862474" xlink:href="#id44">August</textPath></text><line stroke="#e1ed5e" stroke-width="0.3" x1="26.387840678322732" x2="22.057713659400548" y1="142.50000000000003" y2="145.00000000000006" /><path d="M 25.521815274538298 143.00000000000003 a86.0,86.0 0 0,1 -11.493303480769221,-40.785679425670985" fill="none" id="id45" stroke="none" /><text fill="#e1ed5e" style="font-size:6.75px; font-family:Arial;" text-anchor="middle"><textPath startOffset="21.40746469413373" xlink:href="#id45">September</textPath></text><line stroke="#e1ed5e" stroke-width="0.3" x1="15.003131293944662" x2="10.003315487706104" y1="100.72959589197737" y2="100.7725132973878" /><path d="M 14.003168132696942 100.73817937305945 a86.0,86.0 0 0,1 10.791469493833604,-42.45332614584628" fill="none" id="id46" stroke="none" /><text fill="#e1ed5e" style="font-size:6.75px; font-family:Arial;" text-anchor="middle"><textPath startOffset="22.145653131862435" xlink:href="#id46">October</textPath></text><line stroke="#e1ed5e" stroke-width="0.3" x1="26.387840678322718" x2="22.05771365940052" y1="57.49999999999999" y2="54.99999999999999" /><path d="M 25.521815274538284 56.99999999999999 a86.0,86.0 0 0,1 29.574782752854787,-30.34633250058573" fill="none" id="id47" stroke="none" /><text fill="#e1ed5e" style="font-size:6.75px; font-family:Arial;" text-anchor="middle"><textPath startOffset="21.40746469413373" xlink:href="#id47">November</textPath></text><line stroke="#e1ed5e" stroke-width="0.3" x1="56.869717070023135" x2="54.33264160355391" y1="26.7553504044142" y2="22.446841604673864" /><path d="M 56.362301976729285 25.89364864446614 a86.0,86.0 0 0,1 42.16139366436587,-11.88097634709845" fill="none" id="id48" stroke="none" /><text fill="#e1ed5e" style="font-size:6.75px; font-family:Arial;" text-anchor="middle"><textPath startOffset="22.145653131862474" xlink:href="#id48">December</textPath></text></svg>