<?xml version="1.0" encoding="utf-8" ?>
<svg baseProfile="full" height="200mm" version="1.1" viewBox="0,0,200,200" width="200mm" xmlns="http://www.w3.org/2000/svg" xmlns:ev="http://www.w3.org/2001/xml-events" xmlns:xlink="http://www.w3.org/1999/xlink"><defs /><rect fill="#1a1a1a" height="200" width="200" x="0" y="0" /><text alignment-baseline="middle" fill="#e1ed5e" style="dominant-baseline: central; font-size:9.0px; font-family:Arial;" text-anchor="middle" x="100.0" y="100.0">2023</text><line stroke="#e1ed5e" stroke-width="0.3" x1="100.0" x2="100.0" y1="15.0" y2="10.0" /><path d="M 100.0 14.0 a86.0,86.0 0 0,1 42.46469731375804,11.215312516191453" fill="none" id="id25" stroke="none" /><text fill="#e1ed5e" style="font-size:6.75px; font-family:Arial;" text-anchor="middle"><textPath startOffset="22.20632615414155" xlink:href="#id25">January</textPath></text><path d="M 101.44485096284872 79.0497635885617 l 0.6233020097497329 -9.037834901833259 a30.059302683327974,30.059302683327974 0 0,0 0.515888932761824,0.040042910064937376 l -0.7787811318738981 9.025766729579857" fill="#ff4a06" stroke="none" /><path d="M 104.307194497241 79.44645832069477 l 1.8620469383807912 -8.885519189195517 a30.078527967809265,30.078527967809265 0 0,0 0.5058309999325448,0.11055506458384386 l -2.014720662466864 8.852150626515803" fill="#ff4a06" stroke="none" /><path d="M 104.66035177308747 79.52364482259891 l 2.0026296016759706 -8.799025697909425 a30.02404446764195,30.02404446764195 0 0,0 0.5029403650143014,0.11902973504740617 l -2.1537936536527953 8.76325005072115" fill="#ff4906" stroke="none" /><path d="M 105.01212808612495 79.60689891045804 l 2.627782736127663 -10.69179359712569 a32.00998149098483,32.00998149098483 0 0,0 0.5339434280785169,0.13611406856356864 l -2.811435052891205 10.644976532393255" fill="#ff6609" stroke="none" /><path d="M 105.71112130821622 79.79150937346287 l 1.4634189827450599 -5.1782280920831765 a26.3810446283875,26.3810446283875 0 0,0 0.4359276453678714,0.12725923360599592 l -1.5523368458363584 5.152270529558478" fill="#ff1302" stroke="none" /><path d="M 106.40334571778207 80.00007090966166 l 3.9981483103001385 -12.487641027502658 a34.11206956749862,34.11206956749862 0 0,0 0.5576790214944736,0.18385800534071506 l -4.212510154037029 12.416969297902707" fill="#ff840c" stroke="none" /><path d="M 109.73455568895987 81.39251694778311 l 4.193499956177267 -8.015823408616026 a30.04648367049736,30.04648367049736 0 0,0 0.45621286441639497,0.2436931125192076 l -4.330857867121973 7.942451569595063" fill="#ff4906" stroke="none" /><path d="M 110.05341064243156 81.56283822128135 l 4.342034910831055 -7.962949385749353 a30.069830763960354,30.069830763960354 0 0,0 0.45230167542932,0.251705392679783 l -4.4784606753324105 7.887028595509391" fill="#ff4a06" stroke="none" /><line stroke="#e1ed5e" stroke-width="0.3" x1="143.23703022742887" x2="145.7803849466894" y1="26.81831364943548" y2="22.513508569990506" /><path d="M 143.74570117128098 25.957352633546492 a86.0,86.0 0 0,1 28.547481713284135,27.462654790039103" fill="none" id="id26" stroke="none" /><text fill="#e1ed5e" style="font-size:6.75px; font-family:Arial;" text-anchor="middle"><textPath startOffset="19.985693538727396" xlink:href="#id26">February</textPath></text><path d="M 110.68208982089419 81.91981866633111 l 4.589532795031885 -7.768104047270637 a30.022596730758593,30.022596730758593 0 0,0 0.4426730865949144,0.2667055815704633 l -4.722567947844437 7.687951856241559" fill="#ff4906" stroke="none" /><path d="M 113.89432698308785 84.25364557470407 l 5.95085636040536 -6.744068532360449 a29.994173213328246,29.994173213328246 0 0,0 0.384195382406094,0.34493440772210276 l -6.0660627304074435 6.640635115869048" fill="#ff4906" stroke="none" /><path d="M 114.42810811169701 84.74124197986012 l 6.190184317235241 -6.5465634070333945 a30.00976549770602,30.00976549770602 0 0,0 0.37228794130544457,0.3581407045724883 l -6.3019555021531035 6.439039615698604" fill="#ff4906" stroke="none" /><path d="M 115.4437574822437 85.77008943001954 l 8.70498600248698 -8.020792379752216 a32.83680242728523,32.83680242728523 0 0,0 0.37943137765788365,0.41897760406531354 l -8.841761020760899 7.869761988417353" fill="#ff720a" stroke="none" /><path d="M 115.9244219780498 86.31012108654704 l 12.314762585187369 -10.5867333126136 a37.23983681451058,37.23983681451058 0 0,0 0.41369803258557336,0.48968798350474374 l -12.49517123126006 10.373186379479748" fill="#ffaf10" stroke="none" /><path d="M 116.38621287248628 86.86637796730983 l 8.589893583015783 -6.884837667999998 a32.00850859482098,32.00850859482098 0 0,0 0.34088439683355914,0.4328885666261287 l -8.707132060443307 6.735956707420831" fill="#ff6609" stroke="none" /><path d="M 117.04232023915458 87.72973835380427 l 7.280085949783295 -5.241572635479696 a29.970715419031066,29.970715419031066 0 0,0 0.29783381349528404,0.4212648075140613 l -7.369232383082463 5.115481327633842" fill="#ff4806" stroke="none" /><line stroke="#e1ed5e" stroke-width="0.3" x1="172.23445277983987" x2="176.4835382374775" y1="55.19839476539836" y2="52.563006222186495" /><path d="M 173.08426987136738 54.67131705675599 a86.0,86.0 0 0,1 12.851231095245387,41.99856678651699" fill="none" id="id27" stroke="none" /><text fill="#e1ed5e" style="font-size:6.75px; font-family:Arial;" text-anchor="middle"><textPath startOffset="22.20632615414155" xlink:href="#id27">March</textPath></text><path d="M 117.84615892207809 88.93136811851018 l 13.775093442386812 -8.54365575879056 a37.20948034550162,37.20948034550162 0 0,0 0.3329082624237625,0.5472136510908857 l -13.920117503096797 8.305274334492594" fill="#ffaf10" stroke="none" /><path d="M 119.04729006885535 91.15688171328212 l 14.726182073409209 -6.836950007908811 a37.235896152348445,37.235896152348445 0 0,0 0.26490269575972764,0.5836779759236012 l -14.841687086132284 6.582450023143147" fill="#ffaf10" stroke="none" /><path d="M 119.34039704204932 91.81776055985345 l 14.94287965749228 -6.321805028979974 a37.22513085564283,37.22513085564283 0 0,0 0.24458384575724576,0.5922791827177933 l -15.049485190135723 6.063651275808878" fill="#ffaf10" stroke="none" /><path d="M 119.85752413597 93.16781622104841 l 15.340887575000615 -5.278188888351023 a37.22350484728625,37.22350484728625 0 0,0 0.20324513338521316,0.6076770792929214 l -15.429470002157599 5.013338706135788" fill="#ffaf10" stroke="none" /><path d="M 120.18372546131832 94.20196356495316 l 15.596527816549688 -4.480304526232406 a37.227285927726385,37.227285927726385 0 0,0 0.17162351303393222,0.6174210901437056 l -15.671338100149983 4.211172132669748" fill="#ffaf10" stroke="none" /><path d="M 120.83666639777658 97.38593545837742 l 8.921100820988588 -1.1191969426968786 a29.99103117861268,29.99103117861268 0 0,0 0.05985302522638172,0.5127841685131169 l -8.939044199218559 0.965469035858909" fill="#ff4906" stroke="none" /><path d="M 120.91429891909075 98.10471618934814 l 16.17445399305272 -1.4657522548453152 a37.24073248489621,37.24073248489621 0 0,0 0.052359611883650986,0.6389198870141263 l -16.19728808875586 1.18711845062342" fill="#ffaf10" stroke="none" /><path d="M 120.96714384426684 98.82574320788733 l 8.851846719757681 -0.49574425637652497 a29.865717834322,29.865717834322 0 0,0 0.024328317602941112,0.5135323334621462 l -8.85906864559412 0.343300816291379" fill="#ff4706" stroke="none" /><line stroke="#e1ed5e" stroke-width="0.3" x1="184.98032266829074" x2="189.97916517819016" y1="98.17113171792111" y2="98.06355123074" /><path d="M 185.9800911702706 98.14961562048488 a86.0,86.0 0 0,1 -9.607161424134198,41.387399972396054" fill="none" id="id28" stroke="none" /><text fill="#e1ed5e" style="font-size:6.75px; font-family:Arial;" text-anchor="middle"><textPath startOffset="21.466115282336823" xlink:href="#id28">April</textPath></text><path d="M 120.99513854157772 99.54816195383933 l 16.443535844242867 -0.3538826425518444 a37.44734337166946,37.44734337166946 0 0,0 0.008322213570287767,0.6445646124199225 l -16.44719106493087 0.07078177207145919" fill="#ffb210" stroke="none" /><path d="M 120.9904718944345 100.63252640178507 l 8.878484720267313 0.26754405625837435 a29.882514888817205,29.882514888817205 0 0,0 -0.019918641594552654,0.5140116330611191 l -8.872563945821556 -0.42033293633349955" fill="#ff4706" stroke="none" /><path d="M 120.76222939487914 103.15116336523771 l 16.048352577387544 2.4357201605119863 a37.23213951235221,37.23213951235221 0 0,0 -0.1016229008677992,0.6328059007104196 l -16.004047922158456 -2.7116052909156108" fill="#ffaf10" stroke="none" /><path d="M 120.64145759157962 103.86396538481128 l 8.700461954818008 1.6286778041778576 a29.851589101232456,29.851589101232456 0 0,0 -0.09889414545503221,0.5042591170890646 l -8.671137876387311 -1.7782006483348671" fill="#ff4706" stroke="none" /><line stroke="#e1ed5e" stroke-width="0.3" x1="174.80103733775053" x2="179.2010983576182" y1="140.37084112569926" y2="142.7455964860345" /><path d="M 175.68104954172406 140.8457921977663 a86.0,86.0 0 0,1 -30.038265399797805,32.042727171017184" fill="none" id="id29" stroke="none" /><text fill="#e1ed5e" style="font-size:6.75px; font-family:Arial;" text-anchor="middle"><textPath startOffset="22.206326154141568" xlink:href="#id29">May</textPath></text><path d="M 118.12598468904814 110.60418214915192 l 7.664400277880023 4.483877593682247 a29.879650325023675,29.879650325023675 0 0,0 -0.2635372698878127,0.4417036229674161 l -7.586082132293983 -4.615143310535767" fill="#ff4706" stroke="none" /><path d="M 117.75023020441432 111.22182372390056 l 7.54074265703267 4.767311965535726 a29.921326313745745,29.921326313745745 0 0,0 -0.2789738177876051,0.43297356040234225 l -7.457563975868014 -4.896407125859521" fill="#ff4806" stroke="none" /><path d="M 117.35343817320211 111.8261652097733 l 9.092167467795855 6.196205819036204 a32.002748557260745,32.002748557260745 0 0,0 -0.3141436931386659,0.4525474199100158 l -8.984162867495053 -6.35179450113324" fill="#ff6609" stroke="none" /><path d="M 116.71984013943494 112.70617746262583 l 11.768184045536595 8.943185679314958 a35.78075525216239,35.78075525216239 0 0,0 -0.3768790065031959,0.4871669197067162 l -11.61249822181533 -9.144430593134926" fill="#ff9b0e" stroke="none" /><path d="M 116.27256486870786 113.27417163493432 l 6.879463313498797 5.61184899346899 a29.878055226640278,29.878055226640278 0 0,0 -0.328522022249184,0.39572593907728887 l -6.78184529135607 -5.729436189660049" fill="#ff4706" stroke="none" /><path d="M 115.80600337817218 113.82643327865902 l 11.465967691485204 10.029950865410557 a36.23378907116455,36.23378907116455 0 0,0 -0.4146890736649122,0.46590757035121555 l -11.291619768171953 -10.225832605502639" fill="#ffa20e" stroke="none" /><path d="M 115.07121518719521 114.62390073753431 l 6.379693357655285 6.190343727393926 a29.889366839150934,29.889366839150934 0 0,0 -0.3614611866645987,0.36615827372717485 l -6.27219154593515 -6.299242495101765" fill="#ff4706" stroke="none" /><path d="M 114.55890576462653 115.13401014063108 l 6.154616748030758 6.397735776455499 a29.877518255710847,29.877518255710847 0 0,0 -0.37370254300522393,0.35335907974809466 l -6.043578370634727 -6.502729492949515" fill="#ff4706" stroke="none" /><path d="M 112.34349029814194 116.9893568818739 l 2.609811213300281 3.592096969829443 a25.440076036480203,25.440076036480203 0 0,0 -0.3564913883325041,0.2543471401418281 l -2.547592497118892 -3.6364883718154903" fill="#ff0400" stroke="none" /><line stroke="#e1ed5e" stroke-width="0.3" x1="143.8653032363475" x2="146.44561519142675" y1="172.8068346515853" y2="177.08958963109032" /><path d="M 144.38136562736335 173.6633856474863 a86.0,86.0 0 0,1 -40.68145358897372,12.25698825130547" fill="none" id="id30" stroke="none" /><text fill="#e1ed5e" style="font-size:6.75px; font-family:Arial;" text-anchor="middle"><textPath startOffset="21.466115282336833" xlink:href="#id30">June</textPath></text><path d="M 107.93186726928326 119.44442032107085 l 2.795812465022338 6.853739587815348 a28.402047938048064,28.402047938048064 0 0,0 -0.45426901426851973,0.18076301582143942 l -2.677422374711952 -6.900849448042857" fill="#ff3104" stroke="none" /><path d="M 101.98527174616119 120.90594882070398 l 0.8380655420762291 8.825268059609323 a29.86497096310958,29.86497096310958 0 0,0 -0.5121923329927514,0.04419410968355409 l -0.6860288913419361 -8.83838642157154" fill="#ff4706" stroke="none" /><path d="M 101.26447882468166 120.96189622390904 l 0.5339345178744818 8.851298839951303 a29.86738841054688,29.86738841054688 0 0,0 -0.5134515991207801,0.026539582821389355 l -0.38149485034022207 -8.859178229534894" fill="#ff4706" stroke="none" /><line stroke="#e1ed5e" stroke-width="0.3" x1="102.19456741930631" x2="102.32365962044197" y1="184.97166512339345" y2="189.96999836594603" /><path d="M 102.22038585953345 185.97133177190398 a86.0,86.0 0 0,1 -42.740103519485714,-10.115201625700543" fill="none" id="id31" stroke="none" /><text fill="#e1ed5e" style="font-size:6.75px; font-family:Arial;" text-anchor="middle"><textPath startOffset="22.20632615414155" xlink:href="#id31">July</textPath></text><path d="M 100.54218724476979 120.99299961872073 l 0.273729702514848 10.598566447218047 a31.60210067326919,31.60210067326919 0 0,0 -0.5439177651137878,0.009364037593604825 l -0.09125224750839228 -10.601707962090812" fill="#ff6008" stroke="none" /><path d="M 99.09653310690486 120.98055641714683 l -0.38266177940313756 8.886276976845355 a29.894512271430504,29.894512271430504 0 0,0 -0.513917886616466,-0.026563684558791427 l 0.5355677344330925 -8.878373485524362" fill="#ff4706" stroke="none" /><path d="M 98.01472825383883 120.90594882070398 l -1.538749595839055 16.203837263434533 a37.276734696448315,37.276734696448315 0 0,0 -0.6382618429440051,-0.06615844971636595 l 1.8174440353886534 -16.174949445262406" fill="#ffb010" stroke="none" /><path d="M 96.93821686468263 120.77559828337769 l -1.2952600482875518 8.788931562568456 a29.88386270741516,29.88386270741516 0 0,0 -0.5082592388540751,-0.07937964022982477 l 1.4463551507501442 -8.765333614991524" fill="#ff4706" stroke="none" /><path d="M 96.22490169976321 120.6578951692458 l -1.6055803513691087 8.78597269435432 a29.931472692151182,29.931472692151182 0 0,0 -0.5060305785369811,-0.09698196473953741 l 1.756578544477785 -8.757033531266316" fill="#ff4806" stroke="none" /><path d="M 95.51606077576429 120.51570834832081 l -2.2698923631825094 10.38561126195252 a31.63077290815815,31.63077290815815 0 0,0 -0.5309147671074225,-0.12083447248356474 l 2.4483272796827946 -10.345000055891267" fill="#ff6108" stroke="none" /><path d="M 94.81253420990036 120.34920634021253 l -2.209381973013458 8.666885040283447 a29.944063114947582,29.944063114947582 0 0,0 -0.4983683923681022,-0.13162362202424768 l 2.3582408081930493 -8.627570068955619" fill="#ff4806" stroke="none" /><path d="M 94.11515582081647 120.15858648285463 l -4.558128507950545 15.613910059422235 a37.265630108874305,37.265630108874305 0 0,0 -0.6142174844730697,-0.18505868956888175 l 4.82622096686386 -15.533136000747628" fill="#ffb010" stroke="none" /><path d="M 93.42475214034765 119.94407469862007 l -5.55064761895223 16.836252123270373 a38.727635898452625,38.727635898452625 0 0,0 -0.6313162828489127,-0.21417675989253873 l 5.839633634738368 -16.738212376479712" fill="#ffc412" stroke="none" /><path d="M 92.7421414339146 119.70592522655815 l -3.6532842330113477 9.919089118584841 a31.57046898815741,31.57046898815741 0 0,0 -0.5083293194980951,-0.19220665262334255 l 3.823483773269726 -9.854734215854865" fill="#ff6008" stroke="none" /><path d="M 91.7346041902142 119.30500536409082 l -5.812091436520679 13.574964701118875 a35.76685726561683,35.76685726561683 0 0,0 -0.5638889034815815,-0.2471923241189936 l 6.044901014660004 -13.47290782370543" fill="#ff9b0e" stroke="none" /><path d="M 91.40352486487194 119.15986991738527 l -3.6333328784908727 8.097991819225701 a29.87572979028593,29.87572979028593 0 0,0 -0.4673873040911262,-0.2145545874085996 l 3.772188178349418 -8.034250161483026" fill="#ff4706" stroke="none" /><path d="M 90.7491055286396 118.85261126421891 l -7.82259621259164 15.941849291385788 a38.75769045609565,38.75769045609565 0 0,0 -0.5963998199108799,-0.29904725076048166 l 8.09584994018528 -15.804834199716003" fill="#ffc412" stroke="none" /><line stroke="#e1ed5e" stroke-width="0.3" x1="58.666819895761336" x2="56.23545636021788" y1="174.27360380694188" y2="178.64263932499728" /><path d="M 58.180547188652646 175.14741091055294 a86.0,86.0 0 0,1 -31.652253787137756,-30.449443065178592" fill="none" id="id32" stroke="none" /><text fill="#e1ed5e" style="font-size:6.75px; font-family:Arial;" text-anchor="middle"><textPath startOffset="22.20632615414155" xlink:href="#id32">August</textPath></text><path d="M 89.7882731507175 118.34994917583269 l -4.443011646927089 7.9838639548484664 a30.136872339277723,30.136872339277723 0 0,0 -0.45112204671381495,-0.25615887168630297 l 4.579782460562111 -7.906201917367531" fill="#ff4b07" stroke="none" /><path d="M 89.4739219176387 118.17145234162733 l -8.154860886559167 14.077956176387074 a37.26931486521198,37.26931486521198 0 0,0 -0.5523527719434996,-0.32633975366899826 l 8.39598152953105 -13.935497850424326" fill="#ffb010" stroke="none" /><path d="M 88.8546689885994 117.79835938074946 l -8.61119118602128 13.75150502648809 a37.22518117420381,37.22518117420381 0 0,0 -0.5401519107561988,-0.3447505058477333 l 8.846624898824402 -13.601240091816551" fill="#ffaf10" stroke="none" /><path d="M 88.24862548938628 117.40417183066458 l -13.434233098311816 19.896540702114812 a45.007310362693445,45.007310362693445 0 0,0 -0.638338930150909,-0.43905533684291825 l 13.774728913085616 -19.662344575906793" fill="#e9ff1a" stroke="none" /><path d="M 87.65650970185807 116.9893568818739 l -4.392279611491555 6.045454246911129 a28.472592404046953,28.472592404046953 0 0,0 -0.39402682303629843,-0.29149162383132304 l 4.4956914049464185 -5.96895267434004" fill="#ff3204" stroke="none" /><path d="M 87.07902340077011 116.55440617244103 l -5.495585575333049 7.040965910803808 a29.93177819770005,29.93177819770005 0 0,0 -0.4034269308811876,-0.320506752865875 l 5.615969998931594 -6.945325243932802" fill="#ff4806" stroke="none" /><path d="M 85.97065885151581 115.62618273729859 l -5.9662447781494805 6.645332105912207 a29.930650343097277,29.930650343097277 0 0,0 -0.3804049553010812,-0.3474909073530999 l 6.079749282917416 -6.541648431972531" fill="#ff4806" stroke="none" /><path d="M 85.44109423537348 115.13401014063109 l -6.164060592524893 6.407552670709199 a29.891140209007556,29.891140209007556 0 0,0 -0.3677322617399483,-0.35990341549402854 l 6.273442806640635 -6.300499152292601" fill="#ff4706" stroke="none" /><path d="M 85.18274418774928 114.88116024355367 l -6.271849693598097 6.2988991684108 a29.888882343292256,29.888882343292256 0 0,0 -0.36145532750910525,-0.36615233843359046 l 6.379345646162735 -6.190006335996546" fill="#ff4706" stroke="none" /><path d="M 84.43433777217949 114.09645910891817 l -6.585009954425513 5.963467676207932 a29.88399137916398,29.88399137916398 0 0,0 -0.3420168031032101,-0.3842595039816958 l 6.686685607177061 -5.849234002485372" fill="#ff4706" stroke="none" /><path d="M 83.50135304334701 112.99209946851258 l -6.990541907104963 5.50480388085945 a29.897782977894884,29.897782977894884 0 0,0 -0.314913608333525,-0.4070682895526836 l 7.084262332656556 -5.383657597193514" fill="#ff4706" stroke="none" /><path d="M 83.28015986056508 112.70617746262583 l -7.0443580907935885 5.353332523843886 a29.847663534638613,29.847663534638613 0 0,0 -0.3073438549924549,-0.4117373191773567 l 7.135463212481128 -5.231282325157221" fill="#ff4706" stroke="none" /><path d="M 83.06392112726016 112.41649034213515 l -10.719092680221433 7.858578821019019 a34.29120795764423,34.29120795764423 0 0,0 -0.34490457450023027,-0.47904228777425373 l 10.852777047097272 -7.672902927793627" fill="#ff870c" stroke="none" /><path d="M 82.44556493220864 111.52570212397912 l -8.641907062300705 5.6740103682368845 a31.33813093998632,31.33813093998632 0 0,0 -0.29218350613822164,-0.45347529007120013 l 8.738295431815972 -5.524413478244235" fill="#ff5c08" stroke="none" /><line stroke="#e1ed5e" stroke-width="0.3" x1="26.63291911575756" x2="22.317208475507996" y1="142.92168965132927" y2="145.44649492493687" /><path d="M 25.769776987707644 143.4266507060508 a86.0,86.0 0 0,1 -11.730757126820373,-40.83630448921669" fill="none" id="id33" stroke="none" /><text fill="#e1ed5e" style="font-size:6.75px; font-family:Arial;" text-anchor="middle"><textPath startOffset="21.46611528233685" xlink:href="#id33">September</textPath></text><path d="M 81.18737489456691 109.33194174019688 l -8.037709008488461 3.987079515564673 a29.972266668382744,29.972266668382744 0 0,0 -0.22528688978473443,-0.4641577207291261 l 8.105149154887915 -3.8481328388702623" fill="#ff4806" stroke="none" /><path d="M 80.87730276802145 108.67885076344099 l -8.182459560075777 3.713615529143698 a29.985743416689168,29.985743416689168 0 0,0 -0.20927038231791095,-0.47184946635943475 l 8.24517102712497 -3.5722177262915675" fill="#ff4906" stroke="none" /><path d="M 80.58989483394504 108.01547362559985 l -8.28540719035075 3.4214890771305235 a29.964070493633983,29.964070493633983 0 0,0 -0.19276512332844262,-0.47842722754848654 l 8.34307492793658 -3.2783624817392316" fill="#ff4806" stroke="none" /><path d="M 79.76711848015287 105.62410040840567 l -8.588361859541717 2.3872926549984186 a29.913984835697235,29.913984835697235 0 0,0 -0.13363278389141584,-0.49729730147577816 l 8.628182719774907 -2.2391044203471013" fill="#ff4806" stroke="none" /><path d="M 79.18660465613746 102.79330883721812 l -10.24954566055294 1.3755634771784437 a31.34143902595315,31.34143902595315 0 0,0 -0.06715797400951554,-0.5353151301758633 l 10.271705143809303 -1.1989305927151719" fill="#ff5c08" stroke="none" /><path d="M 79.10278846688536 102.07522291339032 l -8.999764712562596 0.8937325402021155 a30.044032437740537,30.044032437740537 0 0,0 -0.0466761279879014,-0.515067182887485 l 9.013815436827572 -0.7386839687660642" fill="#ff4906" stroke="none" /><path d="M 79.07016306316243 101.71520430193888 l -9.133423523929757 0.7484858753056832 a30.16404148686624,30.16404148686624 0 0,0 -0.03795418003213166,-0.5178546318019749 l 9.144954262626225 -0.5911581070069477" fill="#ff4b07" stroke="none" /><path d="M 79.0235259727143 100.99374915477108 l -9.623751191577307 0.4559200273562188 a30.634544621762366,30.634544621762366 0 0,0 -0.02041991837044708,-0.5269473592735981 l 9.630173242798955 -0.29019542106862384" fill="#ff5207" stroke="none" /><line stroke="#e1ed5e" stroke-width="0.3" x1="15.007084014347285" x2="10.007500721073583" y1="101.09737516637583" y2="101.16192664675087" /><path d="M 14.007167355692545 101.11028546245083 a86.0,86.0 0 0,1 10.666146001902534,-42.60595125391555" fill="none" id="id34" stroke="none" /><text fill="#e1ed5e" style="font-size:6.75px; font-family:Arial;" text-anchor="middle"><textPath startOffset="22.20632615414155" xlink:href="#id34">October</textPath></text><path d="M 79.00175016825051 100.2711162175752 l -10.395573635159176 0.1342211196681459 a31.396440088462086,31.396440088462086 0 0,0 -0.0023258822355036535,-0.5404531195297716 l 10.396343814684183 0.044741478065301085" fill="#ff5d08" stroke="none" /><path d="M 79.62865764111835 94.90015583598534 l -8.77142634371416 -2.1958743150557307 a30.04211170638387,30.04211170638387 0 0,0 0.12990161625245883,-0.5005639176249542 l 8.732328395591393 2.3465346582295488" fill="#ff4906" stroke="none" /><path d="M 79.81627453868168 94.20196356495316 l -7.09445444208559 -2.0379738825136346 a28.38136988482732,28.38136988482732 0 0,0 0.13892559314531625,-0.4683880364741861 l 7.058322951828567 2.15979130573436" fill="#ff3104" stroke="none" /><path d="M 80.02781315780177 93.51064311812611 l -15.45915837026605 -5.022985041683232 a37.254721044851564,37.254721044851564 0 0,0 0.20341557784668493,-0.6081866865381393 l 15.37040549864759 5.288344831143694" fill="#ffb010" stroke="none" /><path d="M 80.2630227832202 92.82701384747504 l -23.06439456105311 -8.382265479951666 a45.54034781832412,45.54034781832412 0 0,0 0.27409957153695635,-0.7344505779858423 l 22.916690401014524 8.778039194966851" fill="#e2ff1b" stroke="none" /><path d="M 80.65960295795068 91.81776055985345 l -8.196284197728932 -3.4675585862843987 a29.899608822822252,29.899608822822252 0 0,0 0.20461197904330028,-0.47227265824077164 l 8.13538150884295 3.6081303891117695" fill="#ff4706" stroke="none" /><path d="M 81.10775173730289 90.83032412892265 l -3.7475260870385894 -1.8189258927113416 a25.165626384616186,25.165626384616186 0 0,0 0.1925050426878094,-0.38807841924169034 l 3.7156610313973673 1.8831639004519933" fill="#ff0000" stroke="none" /><path d="M 81.26839172434947 90.50648371742162 l -56.19482482695157 -28.480548847735136 a84.0,84.0 0 0,0 0.6647622673595439,-1.284109110958658 l 55.69625312643191 29.44363068095413" fill="#4dd2ff" stroke="none" /><line stroke="#e1ed5e" stroke-width="0.3" x1="26.266209847984243" x2="21.928928074336255" y1="57.711370442889674" y2="55.22380399835377" /><path d="M 25.398753493254645 57.213857153982495 a86.0,86.0 0 0,1 29.58750427330803,-30.492523968695096" fill="none" id="id35" stroke="none" /><text fill="#e1ed5e" style="font-size:6.75px; font-family:Arial;" text-anchor="middle"><textPath startOffset="21.46611528233685" xlink:href="#id35">November</textPath></text><path d="M 82.54541684631803 88.32363383020206 l -7.413048434910159 -4.959010891199634 a29.918804635003536,29.918804635003536 0 0,0 0.29003507810111484,-0.4255906886645001 l 7.326588891140304 5.085879603134551" fill="#ff4806" stroke="none" /><path d="M 83.39014120810768 87.1503855733568 l -7.049536622272915 -5.4536181564002115 a29.912795161148104,29.912795161148104 0 0,0 0.31856545599138963,-0.40454577828050153 l 6.954617085687554 5.574156328633761" fill="#ff4806" stroke="none" /><path d="M 84.5562425177563 85.77008943001954 l -6.607772803927048 -6.0884157352728865 a29.985069147971895,29.985069147971895 0 0,0 0.3530137593501977,-0.3765704653022198 l 6.501991722606395 6.201255617453157" fill="#ff4906" stroke="none" /><path d="M 85.31137513191541 84.99185889309783 l -6.253721253682204 -6.389756145412046 a29.94080606637833,29.94080606637833 0 0,0 0.3714324609543921,-0.35731773315256826 l 6.142805549115384 6.496456965326928" fill="#ff4806" stroke="none" /><path d="M 86.10567301691215 84.25364557470407 l -5.923182681618858 -6.712706124166482 a29.95234698775979,29.95234698775979 0 0,0 0.38953198606861106,-0.3377982998067667 l 5.806756896903473 6.81366941739293" fill="#ff4806" stroke="none" /><path d="M 86.65592168130627 83.78471172551755 l -5.673085678554985 -6.893748484279884 a29.927915169889154,29.927915169889154 0 0,0 0.4006016782050367,-0.3239253637958107 l 5.553580601785448 6.9903799453398285" fill="#ff4806" stroke="none" /><path d="M 88.39885842347998 82.49532879139004 l -4.922101130354909 -7.426834796738625 a29.90982349070332,29.90982349070332 0 0,0 0.431602989078801,-0.28072658991504934 l 4.79353111549182 7.510460310813209" fill="#ff4706" stroke="none" /><path d="M 89.00827224532344 82.1063720568725 l -4.649941483495517 -7.5697219509082965 a29.88384186115418,29.88384186115418 0 0,0 0.4406271927317287,-0.26547295340955995 l 4.518952224546139 7.648641513776476" fill="#ff4706" stroke="none" /><line stroke="#e1ed5e" stroke-width="0.3" x1="56.762969772571076" x2="54.21961505331055" y1="26.818313649435495" y2="22.513508569990535" /><path d="M 56.25429882871897 25.957352633546506 a86.0,86.0 0 0,1 42.265352541879196,-11.944610805530505" fill="none" id="id36" stroke="none" /><text fill="#e1ed5e" style="font-size:6.75px; font-family:Arial;" text-anchor="middle"><textPath startOffset="22.20632615414155" xlink:href="#id36">December</textPath></text></svg>