<?xml version="1.0" encoding="utf-8" ?>
<svg baseProfile="full" height="200mm" version="1.1" viewBox="0,0,200,200" width="200mm" xmlns="http://www.w3.org/2000/svg" xmlns:ev="http://www.w3.org/2001/xml-events" xmlns:xlink="http://www.w3.org/1999/xlink"><defs /><rect fill="#1a1a1a" height="200" width="200" x="0" y="0" /><text alignment-baseline="middle" fill="#e1ed5e" style="dominant-baseline: central; font-size:9.0px; font-family:Arial;" text-anchor="middle" x="100.0" y="100.0">2024</text><line stroke="#e1ed5e" stroke-width="0.3" x1="100.0" x2="100.0" y1="15.0" y2="10.0" /><path d="M 100.0 14.0 a86.0,86.0 0 0,1 42.35913384403234,11.155469271406648" fill="none" id="id37" stroke="none" /><text fill="#e1ed5e" style="font-size:6.75px; font-family:Arial;" text-anchor="middle"><textPath startOffset="22.145653131862478" xlink:href="#id37">January</textPath></text><path d="M 100.36049292484886 79.00309439819443 l 0.7202093789877186 -41.948585677459455 a62.95476780878114,62.95476780878114 0 0,0 1.0803838159072672,0.0278268547125423 l -1.4402065089657272 41.93004110539687" fill="#81ff25" stroke="none" /><path d="M 101.08105385017728 79.02784411241856 l 1.6304808972254474 -31.630893819700383 a52.67288922389899,52.67288922389899 0 0,0 0.9026017465105339,0.05429827971221527 l -2.173226995868444 31.598243562163475" fill="#ffc712" stroke="none" /><path d="M 102.15924093988457 79.11130261209362 l 3.2821008144056827 -31.751348097533974 a52.9205308816551,52.9205308816551 0 0,0 0.9028345849106362,0.10116449837197176 l -3.826671300917116 31.69032783865503" fill="#ffcc13" stroke="none" /><path d="M 102.87502721639298 79.19773525538626 l 4.417206088686441 -31.960702828983298 a53.264504257039334,53.264504257039334 0 0,0 0.9046719728923179,0.13295562592481477 l -4.9652031671864405 31.880166129759598" fill="#ffd213" stroke="none" /><path d="M 103.58742460773223 79.30868818359171 l 5.476289072615609 -31.585780103657232 a53.05699996511586,53.05699996511586 0 0,0 0.8960702395052167,0.16329384730804242 l -6.017694045671879 31.487118082417823" fill="#ffce13" stroke="none" /><path d="M 104.29559338865022 79.4440306129975 l 11.793671969787232 -56.43698973274416 a78.6560882181996,78.6560882181996 0 0,0 1.3193157348652773,0.28753872387698887 l -12.760750121271643 56.22621955073345" fill="#43ffdf" stroke="none" /><path d="M 104.9986988182912 79.60360301121754 l 7.597900359542108 -31.002026256786994 a52.919488120896304,52.919488120896304 0 0,0 0.8804661445077517,0.2238110508977958 l -8.128971797275256 30.86702997405393" fill="#ffcc13" stroke="none" /><path d="M 105.69591212413111 79.78721728523813 l 8.676831073057118 -30.79101245073221 a52.990214835344815,52.990214835344815 0 0,0 0.8734301098572559,0.2542427754726361 l -9.204121195295977 30.637525980957058" fill="#ffcd13" stroke="none" /><path d="M 106.38641147887787 79.99465700312896 l 9.782011256558363 -30.642010937429855 a53.165518471074044,53.165518471074044 0 0,0 0.8670467246434201,0.28501548012653904 l -10.306580718849526 30.469574535901295" fill="#ffd013" stroke="none" /><path d="M 106.72888874123014 80.10723608172694 l 20.13643313098369 -59.529786542067406 a83.84322895095929,83.84322895095929 0 0,0 1.359435024329031,0.4728820693077216 l -21.15537392735774 59.175346040191094" fill="#4dd4ff" stroke="none" /><path d="M 107.40779381753099 80.34994680014964 l 11.318580957687589 -30.023880718578592 a53.08650321083872,53.08650321083872 0 0,0 0.8499597555576417,0.32878269266486077 l -11.832312975738756 29.825158137775695" fill="#ffcf13" stroke="none" /><path d="M 108.07796709384702 80.6158196554323 l 12.409835213197482 -29.77908686979137 a53.26140147013606,53.26140147013606 0 0,0 0.8409339321315815,0.3589446906043938 l -12.919204220499493 29.561667529527575" fill="#ffd213" stroke="none" /><path d="M 108.73861861582097 80.90454125486305 l 13.193515961512123 -28.830213426437776 a52.70567882321128,52.70567882321128 0 0,0 0.8194761418496236,0.3835562121617273 l -13.686480817233251 28.599480982705515" fill="#ffc812" stroke="none" /><path d="M 109.3889696526874 81.21577127319529 l 28.166908958062173 -56.352686180414125 a84.0,84.0 0 0,0 1.2842911131456847,0.6557681933086643 l -29.130127292921436 55.86086003543262" fill="#4dd2ff" stroke="none" /><path d="M 110.02825361518725 81.54914285379988 l 20.161571821229817 -37.09502130590251 a63.22001402164582,63.22001402164582 0 0,0 0.9490703259607941,0.5264333113448015 l -20.795386335346713 36.743455079124566" fill="#7cff26" stroke="none" /><line stroke="#e1ed5e" stroke-width="0.3" x1="143.13028292997686" x2="145.6673583964461" y1="26.7553504044142" y2="22.446841604673864" /><path d="M 143.63769802327073 25.89364864446614 a86.0,86.0 0 0,1 29.32050498858742,28.57503671076993" fill="none" id="id38" stroke="none" /><text fill="#e1ed5e" style="font-size:6.75px; font-family:Arial;" text-anchor="middle"><textPath startOffset="20.669276256404974" xlink:href="#id38">February</textPath></text><path d="M 110.65571695917076 81.90426304109057 l 16.15542446714636 -27.435442658356877 a52.83867543685917,52.83867543685917 0 0,0 0.7776525602107844,0.4669580186336946 l -16.62400978391458 27.15407063918726" fill="#ffca12" stroke="none" /><path d="M 111.8722381534696 82.67804972795209 l 17.971344166041536 -26.22072821838184 a52.78829657966216,52.78829657966216 0 0,0 0.743070457024929,0.5187208887633231 l -18.418809714240226 25.90836251381339" fill="#ffc912" stroke="none" /><path d="M 112.45986205192187 83.09580414077388 l 18.713568320856147 -25.38854947210013 a52.54007107786263,52.54007107786263 0 0,0 0.7214177360817895,0.5413653184497959 l -19.146639045848705 25.06356512638632" fill="#ffc412" stroke="none" /><path d="M 116.1254893667686 86.54754324733833 l 24.247874636787987 -20.228439427554473 a52.57766910453694,52.57766910453694 0 0,0 0.5722282624219456,0.6980254371407819 l -24.59154971844856 19.809211708715196" fill="#ffc512" stroke="none" /><path d="M 116.57777611688842 87.10902102172516 l 25.209217275731184 -19.602839830196103 a52.93393124974353,52.93393124974353 0 0,0 0.5516421992794972,0.7221173468093556 l -25.54201145236499 19.167201570145867" fill="#ffcc13" stroke="none" /><path d="M 117.21940702142032 87.97951657250589 l 26.146997261805403 -18.25263476688184 a52.88768009344742,52.88768009344742 0 0,0 0.5132881904320198,0.7489028096437383 l -26.45647518905275 17.801097222168053" fill="#ffcb12" stroke="none" /><path d="M 117.42321728460499 88.27688183743584 l 26.284903814437623 -17.68565634433983 a52.68088712243275,52.68088712243275 0 0,0 0.4984002289144435,0.7546414701607874 l -26.58462848227279 17.231834995839982" fill="#ffc712" stroke="none" /><path d="M 117.62189284568427 88.57770195909679 l 26.548938794416483 -17.2087013713621 a52.638355741068345,52.638355741068345 0 0,0 0.4849805037047377,0.7624699049444006 l -26.84043698974711 16.750417791739025" fill="#ffc612" stroke="none" /><line stroke="#e1ed5e" stroke-width="0.3" x1="172.87174338648825" x2="177.1583165268699" y1="56.24261187166439" y2="53.66864786411523" /><path d="M 173.72905801456457 55.72781907015455 a86.0,86.0 0 0,1 12.242430191666344,42.057860355516425" fill="none" id="id39" stroke="none" /><text fill="#e1ed5e" style="font-size:6.75px; font-family:Arial;" text-anchor="middle"><textPath startOffset="22.145653131862474" xlink:href="#id39">March</textPath></text><path d="M 118.70294669586156 90.45014215332178 l 28.281690404917942 -14.44083263577351 a52.755183189111804,52.755183189111804 0 0,0 0.40490880975960736,0.8100888571778191 l -28.525419127889286 13.953211922431942" fill="#ffc912" stroke="none" /><path d="M 119.31412917781788 91.75594674310238 l 29.08628191728393 -12.41520417325479 a52.62513384059143,52.62513384059143 0 0,0 0.3475117138808836,0.8339016061166905 l -29.295119475701295 11.914070057696822" fill="#ffc612" stroke="none" /><path d="M 119.94978838288452 93.4421083053983 l 30.080690676673587 -9.88812050385858 a52.664220797053346,52.664220797053346 0 0,0 0.2749455626406775,0.8612630589629611 l -30.24600095509152 9.370288411204234" fill="#ffc712" stroke="none" /><path d="M 120.16314734710363 94.1308016681162 l 30.42810339433785 -8.857177434161294 a52.69099348831984,52.69099348831984 0 0,0 0.24534308558934725,0.8706360581964246 l -30.57566497200178 8.333533452061856" fill="#ffc712" stroke="none" /><path d="M 120.26092885502905 94.47779374421319 l 30.596329829411555 -8.33916575084143 a52.7124121512405,52.7124121512405 0 0,0 0.2304549489352588,0.8750749779742203 l -30.734974259151546 7.81271026849441" fill="#ffc812" stroke="none" /><path d="M 120.51834098615036 95.52812308129327 l 30.956516613943972 -6.7468287140221825 a52.683207201382615,52.683207201382615 0 0,0 0.18499906191162657,0.8852874816614397 l -31.067773386679963 6.214424781075339" fill="#ffc712" stroke="none" /><path d="M 120.592083275326 95.88100663000786 l 31.14293129403424 -6.229458467466151 a52.75985394145923,52.75985394145923 0 0,0 0.1700216635652573,0.8896251880898897 l -31.245279249881655 5.693930714342947" fill="#ffc912" stroke="none" /><path d="M 120.82617615685814 97.30363454192243 l 31.457192486427115 -4.0727633623020045 a52.71974717007429,52.71974717007429 0 0,0 0.10849702312421962,0.8985109934842188 l -31.522471595811 3.532158691894373" fill="#ffc812" stroke="none" /><path d="M 120.9064616781168 98.02013634271609 l 31.567998505454938 -2.989522279590883 a52.7092379772926,52.7092379772926 0 0,0 0.07757388553527499,0.9015261376338541 l -31.614666013687955 2.447175094581367" fill="#ffc812" stroke="none" /><path d="M 120.96210409425399 98.7389718711861 l 31.942266542197515 -1.921567435533529 a53.00001270721769,53.00001270721769 0 0,0 0.0468379045060672,0.9086428345709558 l -31.970546036160155 1.3729528075858424" fill="#ffcd13" stroke="none" /><path d="M 120.99303781780057 99.45929381324524 l 36.67444762585276 -0.944603677620091 a57.686610428999714,57.686610428999714 0 0,0 0.01699988259433192,0.9901579350678079 l -36.685258940045756 0.31489882658321666" fill="#daff1c" stroke="none" /><line stroke="#e1ed5e" stroke-width="0.3" x1="184.99686870605535" x2="189.99668451229388" y1="99.2704041080226" y2="99.22748670261217" /><path d="M 185.99683186730306 99.26182062694052 a86.0,86.0 0 0,1 -10.086455211305974,41.156179273409016" fill="none" id="id40" stroke="none" /><text fill="#e1ed5e" style="font-size:6.75px; font-family:Arial;" text-anchor="middle"><textPath startOffset="21.40746469413373" xlink:href="#id40">April</textPath></text><path d="M 120.99922638620191 100.18025310272382 l 31.53600026609382 0.27069863388862386 a52.537162055794724,52.537162055794724 0 0,0 -0.015482372428291945,0.9017705756782813 l -31.52670646206686 -0.8120161255359764" fill="#ffc412" stroke="none" /><path d="M 120.86939407059847 102.33845913500097 l 31.369510746574353 3.5150191096916026 a52.565829053280716,52.565829053280716 0 0,0 -0.10818026027209296,0.8958877426634458 l -31.304548400042595 -4.053000529278457" fill="#ffc512" stroke="none" /><path d="M 120.82617615685814 102.69636545807757 l 39.07218322727752 5.058676371130949 a60.39829575976333,60.39829575976333 0 0,0 -0.14195176602211984,1.0270922657428911 l -38.97958694470019 -5.728656945073925" fill="#abff21" stroke="none" /><path d="M 120.7213421655516 103.40968896794604 l 31.177532105557265 5.130251043527039 a52.59680338203003,52.59680338203003 0 0,0 -0.1542468445527327,0.8896548098763356 l -31.084870443512298 -5.664698886323963" fill="#ffc512" stroke="none" /><path d="M 120.592083275326 104.11899336999214 l 31.00729055886431 6.202326521591819 a52.62152624530127,52.62152624530127 0 0,0 -0.18478246691639524,0.8842509962009474 l -30.89625038112355 -6.733693969078175" fill="#ffc612" stroke="none" /><path d="M 120.43855184770803 104.8234425847677 l 30.751229163929075 7.257206351431375 a52.59596713379317,52.59596713379317 0 0,0 -0.2149233350008762,0.8769605495715002 l -30.622118302411902 -7.784022725610974" fill="#ffc512" stroke="none" /><path d="M 119.4528033332814 107.91128576633889 l 29.151610926146002 11.855706379927954 a52.47021120609869,52.47021120609869 0 0,0 -0.3464886774284747,0.8314466910542668 l -28.943796404181043 -12.354385580423498" fill="#ffc312" stroke="none" /><path d="M 119.16976305983485 108.57439118712176 l 28.924335208363747 12.937487236010027 a52.68589186416745,52.68589186416745 0 0,0 -0.37636677440912986,0.8224293254723607 l -28.69798396909956 -13.432105543697077" fill="#ffc712" stroke="none" /><path d="M 118.8641267826498 109.22738970284198 l 28.27991810166417 13.833125068291922 a52.48188553742992,52.48188553742992 0 0,0 -0.4028111840826135,0.8058922006800848 l -28.038287004369824 -14.316549125135753" fill="#ffc312" stroke="none" /><line stroke="#e1ed5e" stroke-width="0.3" x1="174.33088141563837" x2="178.70328620479359" y1="141.23008692659167" y2="143.65538615756765" /><path d="M 175.20536237346943 141.71514677278685 a86.0,86.0 0 0,1 -30.301960400862466,31.631185727798858" fill="none" id="id41" stroke="none" /><text fill="#e1ed5e" style="font-size:6.75px; font-family:Arial;" text-anchor="middle"><textPath startOffset="22.145653131862474" xlink:href="#id41">May</textPath></text><path d="M 118.36410011445183 110.18625677009912 l 39.764774770901354 22.056850251148354 a66.47243071996587,66.47243071996587 0 0,0 -0.5620612305616142,0.9931083387354471 l -39.38028017531836 -22.736215359982925" fill="#4aff2c" stroke="none" /><path d="M 117.21940702142032 112.02048342749411 l 26.061654796278738 18.19305909791434 a52.78360033194166,52.78360033194166 0 0,0 -0.5250331978367415,0.7385249444661068 l -25.745506499912036 -18.63776126908995" fill="#ffc912" stroke="none" /><path d="M 116.79662413953412 112.60449989151573 l 25.463795130255964 19.10850658385885 a52.83614119677547,52.83614119677547 0 0,0 -0.5506230964353851,0.720783308472776 l -25.13202005646627 -19.542810805572508" fill="#ffca12" stroke="none" /><path d="M 116.35404254752997 113.17365903436017 l 24.801328406396994 19.978194570272287 a52.84704301830252,52.84704301830252 0 0,0 -0.5751599893174344,0.7016016672611588 l -24.45472159784093 -20.400998519231937" fill="#ffca12" stroke="none" /><path d="M 115.6541949942343 113.99807769240083 l 23.785932804434324 21.269527785065335 a52.908672983637715,52.908672983637715 0 0,0 -0.6112269386302679,0.6718454767544355 l -23.417308164962176 -21.674710837377443" fill="#ffcb13" stroke="none" /><path d="M 115.16444852881244 114.52719865689866 l 22.85709976416173 21.896584525552306 a52.65292124770633,52.65292124770633 0 0,0 -0.6308652354233345,0.6473233077382026 l -22.47784772758759 -22.285730525358247" fill="#ffc712" stroke="none" /><path d="M 114.39649973595853 115.28858382429668 l 21.774478880450562 23.123741999775852 a52.76216892133447,52.76216892133447 0 0,0 -0.6647285284518357,0.6152628021143095 l -21.37432058068476 -23.494122548022542" fill="#ffc912" stroke="none" /><path d="M 113.86319453409587 115.77377054828091 l 20.941475803724202 23.827555290946897 a52.722197275426836,52.722197275426836 0 0,0 -0.6849379661298718,0.5916331017765243 l -20.529358357831477 -24.183532525188138" fill="#ffc812" stroke="none" /><path d="M 113.03279911837588 116.46651593811092 l 19.759739875021808 24.965785832316282 a52.83924908275337,52.83924908275337 0 0,0 -0.7160726105663628,0.556822393102871 l -19.328257319820214 -25.301309277039945" fill="#ffca12" stroke="none" /><path d="M 112.45986205192187 116.90419585922612 l 18.904450983567475 25.647518464144884 a52.861786992552034,52.861786992552034 0 0,0 -0.7350783632091225,0.5321400473364861 l -18.461391609984386 -25.968259282854447" fill="#ffcb12" stroke="none" /><path d="M 111.5731344415666 117.5232005979908 l 17.473690898807437 26.457395129477177 a52.70683886268621,52.70683886268621 0 0,0 -0.7592655254417711,0.492146740405524 l -17.016939741108658 -26.753455711586597" fill="#ffc812" stroke="none" /><line stroke="#e1ed5e" stroke-width="0.3" x1="143.1302829299769" x2="145.66735839644613" y1="173.24464959558577" y2="177.55315839532614" /><path d="M 143.63769802327073 174.10635135553383 a86.0,86.0 0 0,1 -40.68552437913181,11.842963189579606" fill="none" id="id42" stroke="none" /><text fill="#e1ed5e" style="font-size:6.75px; font-family:Arial;" text-anchor="middle"><textPath startOffset="21.407464694133747" xlink:href="#id42">June</textPath></text><path d="M 108.07796709384702 119.3841803445677 l 12.202545748348076 29.281667615232827 a52.72251851712759,52.72251851712759 0 0,0 -0.838402373980911,0.34097094666001015 l -11.698088913176724 -29.48682581847213" fill="#ffc812" stroke="none" /><path d="M 107.407793817531 119.65005319985036 l 11.209526117643543 29.734599798867325 a52.77734886646357,52.77734886646357 0 0,0 -0.8504965430164778,0.312314111200282 l -10.697440422972939 -29.922644759076327" fill="#ffc912" stroke="none" /><path d="M 106.72888874123015 119.89276391827305 l 10.22171628338754 30.21868791187985 a52.900667436492036,52.900667436492036 0 0,0 -0.8627274171551165,0.2835956379627847 l -9.70146612858469 -30.389704471244656" fill="#ffcb12" stroke="none" /><path d="M 106.0420521117495 120.11202640906438 l 9.325023288005537 31.03996972631262 a53.41042702483646,53.41042702483646 0 0,0 -0.8803564070985708,0.25625891965464104 l -8.79080686852536 -31.195472340269777" fill="#ffd513" stroke="none" /><path d="M 104.9986988182912 120.39639698878246 l 7.511374589419971 30.64897158769719 a52.5559852897363,52.5559852897363 0 0,0 -0.878105017461351,0.20723039316487757 l -6.984137418218741 -30.773398124508294" fill="#ffc512" stroke="none" /><path d="M 103.94208987418118 120.62667999033965 l 5.918327572293782 30.967190705428628 a52.52766247978683,52.52766247978683 0 0,0 -0.8871303528254159,0.16166470215169615 l -5.3858624859173085 -31.064223581511687" fill="#ffc412" stroke="none" /><path d="M 103.2317021107853 120.74984581791261 l 4.8733144595022315 31.29017470991568 a52.66740007007586,52.66740007007586 0 0,0 -0.8945304456148612,0.13146517065770197 l -4.335458908279685 -31.369220953872265" fill="#ffc712" stroke="none" /><path d="M 102.875027216393 120.80226474461374 l 4.340424452357066 31.40514915723318 a52.70366978781294,52.70366978781294 0 0,0 -0.8972728960422962,0.11616994042187352 l -3.8006737344239947 -31.475030693855448" fill="#ffc812" stroke="none" /><path d="M 102.15924093988457 120.88869738790638 l 3.2869623113859516 31.79837867082358 a52.967812051023444,52.967812051023444 0 0,0 -0.905246231983465,0.08572775934979343 l -2.7406165160174716 -31.850118185678557" fill="#ffcd13" stroke="none" /><line stroke="#e1ed5e" stroke-width="0.3" x1="101.45913802915013" x2="101.54496967792366" y1="184.9874750549273" y2="189.98673829345242" /><path d="M 101.47630435890484 185.9873277026323 a86.0,86.0 0 0,1 -42.54439059252881,-10.42667462771756" fill="none" id="id43" stroke="none" /><text fill="#e1ed5e" style="font-size:6.75px; font-family:Arial;" text-anchor="middle"><textPath startOffset="22.145653131862474" xlink:href="#id43">July</textPath></text><line stroke="#e1ed5e" stroke-width="0.3" x1="58.13341422392154" x2="55.67067388415222" y1="173.97424548756322" y2="178.32567169271397" /><path d="M 57.64086615596768 174.84453072859336 a86.0,86.0 0 0,1 -31.369924170532247,-30.572349798747897" fill="none" id="id44" stroke="none" /><text fill="#e1ed5e" style="font-size:6.75px; font-family:Arial;" text-anchor="middle"><textPath startOffset="22.145653131862474" xlink:href="#id44">August</textPath></text><path d="M 85.08716467003676 114.78537596483092 l -15.670111289400536 15.536179519062616 a43.06638307178453,43.06638307178453 0 0,0 -0.5160033527407778,-0.5294648973263285 l 15.934501443292122 -15.26489192966855" fill="#ff0000" stroke="none" /><line stroke="#e1ed5e" stroke-width="0.3" x1="26.387840678322732" x2="22.057713659400548" y1="142.50000000000003" y2="145.00000000000006" /><path d="M 25.521815274538298 143.00000000000003 a86.0,86.0 0 0,1 -11.493303480769221,-40.785679425670985" fill="none" id="id45" stroke="none" /><text fill="#e1ed5e" style="font-size:6.75px; font-family:Arial;" text-anchor="middle"><textPath startOffset="21.40746469413373" xlink:href="#id45">September</textPath></text><line stroke="#e1ed5e" stroke-width="0.3" x1="15.003131293944662" x2="10.003315487706104" y1="100.72959589197737" y2="100.7725132973878" /><path d="M 14.003168132696942 100.73817937305945 a86.0,86.0 0 0,1 10.791469493833604,-42.45332614584628" fill="none" id="id46" stroke="none" /><text fill="#e1ed5e" style="font-size:6.75px; font-family:Arial;" text-anchor="middle"><textPath startOffset="22.145653131862435" xlink:href="#id46">October</textPath></text><line stroke="#e1ed5e" stroke-width="0.3" x1="26.387840678322718" x2="22.05771365940052" y1="57.49999999999999" y2="54.99999999999999" /><path d="M 25.521815274538284 56.99999999999999 a86.0,86.0 0 0,1 29.574782752854787,-30.34633250058573" fill="none" id="id47" stroke="none" /><text fill="#e1ed5e" style="font-size:6.75px; font-family:Arial;" text-anchor="middle"><textPath startOffset="21.40746469413373" xlink:href="#id47">November</textPath></text><line stroke="#e1ed5e" stroke-width="0.3" x1="56.869717070023135" x2="54.33264160355391" y1="26.7553504044142" y2="22.446841604673864" /><path d="M 56.362301976729285 25.89364864446614 a86.0,86.0 0 0,1 42.16139366436587,-11.88097634709845" fill="none" id="id48" stroke="none" /><text fill="#e1ed5e" style="font-size:6.75px; font-family:Arial;" text-anchor="middle"><textPath startOffset="22.145653131862474" xlink:href="#id48">December</textPath></text></svg>