<?xml version="1.0" encoding="utf-8" ?>
<svg baseProfile="full" height="200mm" version="1.1" viewBox="0,0,200,200" width="200mm" xmlns="http://www.w3.org/2000/svg" xmlns:ev="http://www.w3.org/2001/xml-events" xmlns:xlink="http://www.w3.org/1999/xlink"><defs /><rect fill="#1a1a1a" height="200" width="200" x="0" y="0" /><text alignment-baseline="middle" fill="#e1ed5e" style="dominant-baseline: central; font-size:9.0px; font-family:Arial;" text-anchor="middle" x="100.0" y="100.0">2021</text><line stroke="#e1ed5e" stroke-width="0.3" x1="100.0" x2="100.0" y1="15.0" y2="10.0" /><path d="M 100.0 14.0 a86.0,86.0 0 0,1 42.46469731375804,11.215312516191453" fill="none" id="id1" stroke="none" /><text fill="#e1ed5e" style="font-size:6.75px; font-family:Arial;" text-anchor="middle"><textPath startOffset="22.20632615414155" xlink:href="#id1">January</textPath></text><line stroke="#e1ed5e" stroke-width="0.3" x1="143.23703022742887" x2="145.7803849466894" y1="26.81831364943548" y2="22.513508569990506" /><path d="M 143.74570117128098 25.957352633546492 a86.0,86.0 0 0,1 28.547481713284135,27.462654790039103" fill="none" id="id2" stroke="none" /><text fill="#e1ed5e" style="font-size:6.75px; font-family:Arial;" text-anchor="middle"><textPath startOffset="19.985693538727396" xlink:href="#id2">February</textPath></text><line stroke="#e1ed5e" stroke-width="0.3" x1="172.23445277983987" x2="176.4835382374775" y1="55.19839476539836" y2="52.563006222186495" /><path d="M 173.08426987136738 54.67131705675599 a86.0,86.0 0 0,1 12.851231095245387,41.99856678651699" fill="none" id="id3" stroke="none" /><text fill="#e1ed5e" style="font-size:6.75px; font-family:Arial;" text-anchor="middle"><textPath startOffset="22.20632615414155" xlink:href="#id3">March</textPath></text><line stroke="#e1ed5e" stroke-width="0.3" x1="184.98032266829074" x2="189.97916517819016" y1="98.17113171792111" y2="98.06355123074" /><path d="M 185.9800911702706 98.14961562048488 a86.0,86.0 0 0,1 -9.607161424134198,41.387399972396054" fill="none" id="id4" stroke="none" /><text fill="#e1ed5e" style="font-size:6.75px; font-family:Arial;" text-anchor="middle"><textPath startOffset="21.466115282336823" xlink:href="#id4">April</textPath></text><line stroke="#e1ed5e" stroke-width="0.3" x1="174.80103733775053" x2="179.2010983576182" y1="140.37084112569926" y2="142.7455964860345" /><path d="M 175.68104954172406 140.8457921977663 a86.0,86.0 0 0,1 -30.038265399797805,32.042727171017184" fill="none" id="id5" stroke="none" /><text fill="#e1ed5e" style="font-size:6.75px; font-family:Arial;" text-anchor="middle"><textPath startOffset="22.206326154141568" xlink:href="#id5">May</textPath></text><path d="M 115.07121518719521 114.62390073753431 l 5.498063768617394 5.334880950356722 a28.660917696873028,28.660917696873028 0 0,0 -0.3466051782682196,0.351109215655161 l -5.405417965293639 -5.428730659992548" fill="#ff3404" stroke="none" /><path d="M 114.55890576462653 115.13401014063108 l 10.796107497647684 11.222574209232445 a36.572479217597106,36.572479217597106 0 0,0 -0.4574418922833177,0.43253986123717825 l -10.601329770973559 -11.406748707215545" fill="#ffa50f" stroke="none" /><path d="M 114.0293411484842 115.62618273729858 l 11.170342005477995 12.441767832738217 a37.72047030807165,37.72047030807165 0 0,0 -0.4868772347125153,0.42961255138839244 l -10.954522417858891 -12.632203525898898" fill="#ffb510" stroke="none" /><path d="M 112.04921762599082 117.19931262002967 l 10.499840928420861 14.987698968848433 a39.299666114521386,39.299666114521386 0 0,0 -0.5573873804204551,0.38337612278267663 l -10.240296663377523 -15.166215880996203" fill="#ffca12" stroke="none" /><path d="M 111.45004920935366 117.60387380957326 l 10.058498206611969 15.46443424875125 a39.44782135663631,39.44782135663631 0 0,0 -0.572403287474706,0.3653348603905602 l -9.790813117090332 -15.635283537965618" fill="#ffcc13" stroke="none" /><path d="M 111.1453310114006 117.79835938074945 l 9.758191887157722 15.583189582820745 a39.38635653088245,39.38635653088245 0 0,0 -0.5777055738282738,0.3548739478691615 l -9.488507113397139 -15.748851997518285" fill="#ffcc13" stroke="none" /><line stroke="#e1ed5e" stroke-width="0.3" x1="143.8653032363475" x2="146.44561519142675" y1="172.8068346515853" y2="177.08958963109032" /><path d="M 144.38136562736335 173.6633856474863 a86.0,86.0 0 0,1 -40.68145358897372,12.25698825130547" fill="none" id="id6" stroke="none" /><text fill="#e1ed5e" style="font-size:6.75px; font-family:Arial;" text-anchor="middle"><textPath startOffset="21.466115282336833" xlink:href="#id6">June</textPath></text><path d="M 110.5260780823613 118.17145234162733 l 9.199176993324222 15.880787222783598 a39.35277254721565,39.35277254721565 0 0,0 -0.5890758369184202,0.3344926341372404 l -8.924452389484603 -16.036783022715465" fill="#ffcb12" stroke="none" /><path d="M 109.89434966115114 118.52300852407294 l 8.609937152342201 16.118486280179848 a39.27393273851112,39.27393273851112 0 0,0 -0.5990379976051244,0.31338836806278186 l -8.331208252210581 -16.264304067187346" fill="#ffca12" stroke="none" /><path d="M 109.2508944713604 118.85261126421891 l 8.140941390718117 16.590612274212717 a39.48035016877021,39.48035016877021 0 0,0 -0.6126736182341469,0.2941205688668558 l -7.854155104483738 -16.728287119579132" fill="#ffcd13" stroke="none" /><path d="M 108.59647513512805 119.15986991738527 l 7.490568993262782 16.69502037313538 a39.298424224567405,39.298424224567405 0 0,0 -0.6195664656801506,0.2715997311741247 l -7.202081852924878 -16.82148465760396" fill="#ffca12" stroke="none" /><path d="M 107.93186726928326 119.44442032107085 l 6.894556907282168 16.901526195716425 a39.253670937437235,39.253670937437235 0 0,0 -0.6278324169463374,0.24982747568734617 l -6.602603414293965 -17.01770051580984" fill="#ffca12" stroke="none" /><path d="M 107.2578585660854 119.70592522655815 l 6.364947450204299 17.281568300434408 a39.41643719524603,39.41643719524603 0 0,0 -0.6386972651051802,0.2290141155064736 l -6.066530624469383 -17.38856995698084" fill="#ffcc13" stroke="none" /><path d="M 106.57524785965236 119.94407469862006 l 5.740603761152598 17.412428043991618 a39.334317056540314,39.334317056540314 0 0,0 -0.6448555127615324,0.2064623713203328 l -5.440026903300125 -17.508663261971655" fill="#ffcb12" stroke="none" /><path d="M 105.88484417918355 120.15858648285463 l 5.135312717135601 17.591059741405658 a39.325305441614816,39.325305441614816 0 0,0 -0.6514308603763875,0.18410086810935505 l -4.8317506886546076 -17.676849402853534" fill="#ffcb12" stroke="none" /><path d="M 105.18746579009965 120.34920634021253 l 4.527992673993949 17.762248650569596 a39.3303080928937,39.3303080928937 0 0,0 -0.6574654983832302,0.16158902344649492 l -4.221573890867507 -17.837558932330122" fill="#ffcb12" stroke="none" /><path d="M 104.48393922423573 120.51570834832081 l 4.1888541185523955 19.165583009107603 a40.61800374415061,40.61800374415061 0 0,0 -0.6843331687797133,0.14340866916455836 l -3.858329488343304 -19.234847658998703" fill="#ffdc14" stroke="none" /><path d="M 103.7750983002368 120.6578951692458 l 3.2923354929921187 18.016145823792716 a39.31450199548378,39.31450199548378 0 0,0 -0.6667571581788425,0.11592427849043309 l -2.981729363341226 -18.070148680804156" fill="#ffcb12" stroke="none" /><path d="M 103.06178313531738 120.77559828337769 l 2.6761680863173782 18.159023889966726 a39.35516342238897,39.35516342238897 0 0,0 -0.6710456576536827,0.09300081356884221 l -2.363193837476865 -18.202399269028174" fill="#ffcb12" stroke="none" /><path d="M 102.34483914955558 120.86867818915974 l 2.0466174354924314 18.214554565804526 a39.32917458474146,39.32917458474146 0 0,0 -0.673404246813353,0.06980110356604999 l -1.732780592073476 -18.247085037826338" fill="#ffcb12" stroke="none" /><path d="M 101.62511606390274 120.93702456842531 l 1.422875733516837 18.331480964452066 a39.38661931142045,39.38661931142045 0 0,0 -0.6763943643200924,0.04664811553247044 l -1.1071186084178142 -18.35325742450082" fill="#ffcc13" stroke="none" /><path d="M 100.90346689309514 120.98055641714683 l 0.7906709191030089 18.361177318637054 a39.378193410364005,39.378193410364005 0 0,0 -0.6774542793801825,0.02333289515340118 l -0.4744962880481742 -18.372067012216547" fill="#ffcc13" stroke="none" /><line stroke="#e1ed5e" stroke-width="0.3" x1="102.19456741930631" x2="102.32365962044197" y1="184.97166512339345" y2="189.96999836594603" /><path d="M 102.22038585953345 185.97133177190398 a86.0,86.0 0 0,1 -42.740103519485714,-10.115201625700543" fill="none" id="id7" stroke="none" /><text fill="#e1ed5e" style="font-size:6.75px; font-family:Arial;" text-anchor="middle"><textPath startOffset="22.20632615414155" xlink:href="#id7">July</textPath></text><path d="M 100.18074693466247 120.99922214144158 l 0.15748921123563675 18.29713426561573 a39.29781203274383,39.29781203274383 0 0,0 -0.6764722917961717,0.0 l 0.15748921123562415 -18.29713426561573" fill="#ffca12" stroke="none" /><path d="M 99.09653310690486 120.98055641714683 l -0.7917705283080084 18.38671274571105 a39.40375250221515,39.40375250221515 0 0,0 -0.6773916572657862,-0.03501341123741454 l 1.1081502539872836 -18.370359527711432" fill="#ffcc13" stroke="none" /><path d="M 98.37488393609728 120.93702456842531 l -1.4206982167566515 18.30342713930163 a39.35848110456905,39.35848110456905 0 0,0 -0.6750086007082241,-0.058242582357170516 l 1.7355511352064175 -18.276260304665794" fill="#ffcb12" stroke="none" /><path d="M 97.65516085044442 120.86867818915974 l -2.0655905826732064 18.383412418091023 a39.49909502080714,39.49909502080714 0 0,0 -0.6750067627264331,-0.08173391856935192 l 2.3817247684510288 -18.345132970796325" fill="#ffcd13" stroke="none" /><path d="M 96.93821686468263 120.77559828337769 l -2.7046416700643396 18.352230172538384 a39.55045656767716,39.55045656767716 0 0,0 -0.672666888756346,-0.10505673393046712 l 3.020144422429203 -18.302955131260813" fill="#ffce13" stroke="none" /><path d="M 96.22490169976321 120.6578951692458 l -3.29974067255081 18.0566680594716 a39.355695299171536,39.355695299171536 0 0,0 -0.6653593515359237,-0.12751770329045972 l 3.6100676386584287 -17.997193157832672" fill="#ffcb12" stroke="none" /><path d="M 95.16358092515715 120.4354850818985 l -4.244661147536226 17.935110298730514 a39.43055424248096,39.43055424248096 0 0,0 -0.6591412641703621,-0.16200088590579262 l 4.552755696449799 -17.85938815451069" fill="#ffcc13" stroke="none" /><path d="M 93.76903079525671 120.05430185196036 l -5.456602948867025 17.56201307167023 a39.39018267639287,39.39018267639287 0 0,0 -0.645771386116699,-0.20675560504632984 l 5.758095680074665 -17.465484619964194" fill="#ffcc13" stroke="none" /><path d="M 93.08242187328487 119.8279376855182 l -6.024619741386597 17.268440286901512 a39.289206460931766,39.289206460931766 0 0,0 -0.6366356398588211,-0.22827489004224105 l 6.320974941875145 -17.162177855819312" fill="#ffca12" stroke="none" /><path d="M 92.06813273071674 119.44442032107085 l -9.276968746532082 22.741842934205785 a45.56122084034543,45.56122084034543 0 0,0 -0.7236174995425817,-0.3024721734959171 l 9.667057705572127 -22.578785717689893" fill="#e3ff1b" stroke="none" /><path d="M 91.40352486487194 119.15986991738527 l -12.378047614230686 27.58825895403795 a51.23785863541294,51.23785863541294 0 0,0 -0.8015845900037071,-0.36796817002929394 l 12.851100200001813 -27.371103713674582" fill="#9eff22" stroke="none" /><path d="M 90.7491055286396 118.85261126421891 l -8.06586999760651 16.437622550270024 a39.30993429598901,39.30993429598901 0 0,0 -0.604897697952204,-0.30330826322345583 l 8.347621603241477 -16.296346446137267" fill="#ffcb12" stroke="none" /><line stroke="#e1ed5e" stroke-width="0.3" x1="58.666819895761336" x2="56.23545636021788" y1="174.27360380694188" y2="178.64263932499728" /><path d="M 58.180547188652646 175.14741091055294 a86.0,86.0 0 0,1 -31.652253787137756,-30.449443065178592" fill="none" id="id8" stroke="none" /><text fill="#e1ed5e" style="font-size:6.75px; font-family:Arial;" text-anchor="middle"><textPath startOffset="22.20632615414155" xlink:href="#id8">August</textPath></text><path d="M 89.4739219176387 118.17145234162733 l -9.227044540635351 15.928895720923173 a39.40836955960286,39.40836955960286 0 0,0 -0.584054797968357,-0.34506986943787216 l 9.49986720963209 -15.767707279191551" fill="#ffcc13" stroke="none" /><path d="M 88.8546689885994 117.79835938074946 l -9.704740102373995 15.497830603877008 a39.28564283477868,39.28564283477868 0 0,0 -0.5700500138115215,-0.36383288979742645 l 9.97007191823244 -15.328483285255777" fill="#ffca12" stroke="none" /><path d="M 87.36589467227662 116.77436683061367 l -11.045212450622072 14.664785559626347 a39.35899380655711,39.35899380655711 0 0,0 -0.5376649808811437,-0.41225858012870936 l 11.296006159996702 -14.472487637670271" fill="#ffcb12" stroke="none" /><path d="M 86.79598089348748 116.32954008644616 l -11.513598794844171 14.238980687852413 a39.31151354306004,39.31151354306004 0 0,0 -0.5225246534280035,-0.4300022164739494 l 11.756993576816862 -14.038683352521284" fill="#ffcb12" stroke="none" /><path d="M 86.24171649860922 115.8653595955263 l -12.01240092944711 13.852095745232136 a39.3351665556891,39.3351665556891 0 0,0 -0.5077189378386938,-0.44800293117397416 l 12.249062220192393 -13.643269672285873" fill="#ffcb12" stroke="none" /><path d="M 85.70375840098266 115.38237550388516 l -12.420828710378848 13.364481144863827 a39.245173118498826,39.245173118498826 0 0,0 -0.4908714595884969,-0.4641496036926092 l 12.64903600435816 -13.148696904425286" fill="#ffca12" stroke="none" /><path d="M 85.18274418774928 114.88116024355367 l -12.938739379069565 12.994542072380206 a39.33764162563836,39.33764162563836 0 0,0 -0.47572204185888356,-0.4819039167893985 l 13.160502045983982 -12.769897661610141" fill="#ffcb12" stroke="none" /><path d="M 83.72743513129214 113.27417163493432 l -19.79295552172102 16.14589284957687 a46.54311931215223,46.54311931215223 0 0,0 -0.5010745520748143,-0.6251675474478249 l 20.067947985850697 -15.802797468550786" fill="#d6ff1c" stroke="none" /><path d="M 82.85270091963577 112.12312394758628 l -14.91872093989087 10.547521347012408 a39.27069897535452,39.27069897535452 0 0,0 -0.3854869648518333,-0.5553227238454789 l 15.098068811904836 -10.289157360979916" fill="#ffca12" stroke="none" /><line stroke="#e1ed5e" stroke-width="0.3" x1="26.63291911575756" x2="22.317208475507996" y1="142.92168965132927" y2="145.44649492493687" /><path d="M 25.769776987707644 143.4266507060508 a86.0,86.0 0 0,1 -11.730757126820373,-40.83630448921669" fill="none" id="id9" stroke="none" /><text fill="#e1ed5e" style="font-size:6.75px; font-family:Arial;" text-anchor="middle"><textPath startOffset="21.46611528233685" xlink:href="#id9">September</textPath></text><path d="M 81.51974371655577 109.97397251340807 l -16.06456722268613 8.670201833857114 a39.25493686354518,39.25493686354518 0 0,0 -0.31581062489935313,-0.5973946859681504 l 16.211430355810368 -8.392392132802836" fill="#ffca12" stroke="none" /><path d="M 80.58989483394504 108.01547362559985 l -17.028368769614907 7.031926905709686 a39.42317396545015,39.42317396545015 0 0,0 -0.253617511448025,-0.6294578643932615 l 17.14688889532032 -6.737769673473619" fill="#ffcc13" stroke="none" /><path d="M 79.86692584326677 105.97154293290107 l -35.39370611792104 10.497901810338501 a57.91775149140681,57.91775149140681 0 0,0 -0.275267526373487,-0.9582423710129445 l 35.569166281180635 -9.88710196382096" fill="#53ff2b" stroke="none" /><path d="M 79.23777060512086 103.15116336523772 l -18.096722893715814 2.746609197353395 a39.30396791886733,39.30396791886733 0 0,0 -0.09576308654199976,-0.6697668042335116 l 18.141320031274415 -2.4346969211394827" fill="#ffcb12" stroke="none" /><line stroke="#e1ed5e" stroke-width="0.3" x1="15.007084014347285" x2="10.007500721073583" y1="101.09737516637583" y2="101.16192664675087" /><path d="M 14.007167355692545 101.11028546245083 a86.0,86.0 0 0,1 10.666146001902534,-42.60595125391555" fill="none" id="id10" stroke="none" /><text fill="#e1ed5e" style="font-size:6.75px; font-family:Arial;" text-anchor="middle"><textPath startOffset="22.20632615414155" xlink:href="#id10">October</textPath></text><path d="M 79.00019446554 99.90962569577889 l -18.83079915146315 -0.08103981574727023 a39.830973531245846,39.830973531245846 0 0,0 0.008851946188799269,-0.6855929875094485 l 18.826614198156634 0.40516906131719077" fill="#ffd213" stroke="none" /><path d="M 79.32604984820605 96.31383870115002 l -21.772895585109048 -3.8821030562834347 a43.116276953856094,43.116276953856094 0 0,0 0.1365641880613169,-0.7295313533285865 l 21.70284567313787 4.256312487074593" fill="#fffd17" stroke="none" /><path d="M 79.46518482838121 95.60439243477599 l -61.60444551485639 -13.186822695672024 a84.0,84.0 0 0,0 0.31482245199184966,-1.4112873218001631 l 61.3683286758625 14.245288187022146" fill="#4dd2ff" stroke="none" /><path d="M 79.71946130924805 94.55025226153421 l -16.169064602385372 -4.34492025057199 a37.742669503395874,37.742669503395874 0 0,0 0.1739995105747754,-0.6259688174679703 l 16.091878321244238 4.622600371458902" fill="#ffb510" stroke="none" /><path d="M 80.02781315780177 93.51064311812611 l -17.332130647416264 -5.6315506250275345 a39.22408064132054,39.22408064132054 0 0,0 0.21416853503085936,-0.6403366598565968 l 17.23262481861363 5.929060387806453" fill="#ffc912" stroke="none" /><path d="M 80.2630227832202 92.82701384747504 l -17.120281729214966 -6.222003624069697 a39.215855060513306,39.215855060513306 0 0,0 0.23603353036352903,-0.632452512886032 l 17.01064361034981 6.51577927398507" fill="#ffc912" stroke="none" /><path d="M 80.803312248108 91.48605970444005 l -19.313022096291537 -8.56553584554971 a42.127262643637536,42.127262643637536 0 0,0 0.29970073483979986,-0.6603508423816701 l 19.162719044488384 8.896708696773452" fill="#fff016" stroke="none" /><path d="M 81.26839172434947 90.50648371742162 l -19.350874712362945 -9.807371660806945 a42.69425940258775,42.69425940258775 0 0,0 0.3378753890916757,-0.6526677081487533 l 19.179189890111154 10.139012091216035" fill="#fff717" stroke="none" /><line stroke="#e1ed5e" stroke-width="0.3" x1="26.266209847984243" x2="21.928928074336255" y1="57.711370442889674" y2="55.22380399835377" /><path d="M 25.398753493254645 57.213857153982495 a86.0,86.0 0 0,1 29.58750427330803,-30.492523968695096" fill="none" id="id11" stroke="none" /><text fill="#e1ed5e" style="font-size:6.75px; font-family:Arial;" text-anchor="middle"><textPath startOffset="21.46611528233685" xlink:href="#id11">November</textPath></text><path d="M 81.78341655067845 89.55222093294921 l -15.737647566875376 -9.0260319818614 a39.142293247458085,39.142293247458085 0 0,0 0.3402403310175714,-0.5815810162327697 l 15.57994756138748 9.295592410448062" fill="#ffc812" stroke="none" /><path d="M 82.15384107792192 88.93136811851018 l -15.428864610052846 -9.569365792587877 a39.15551224360503,39.15551224360503 0 0,0 0.36017925811037255,-0.5697170890946834 l 15.26185775569651 9.833530529396775" fill="#ffc912" stroke="none" /><path d="M 82.54541684631803 88.32363383020206 l -15.184636834045355 -10.157869613306342 a39.26897673277787,39.26897673277787 0 0,0 0.38067632957224085,-0.5585955406554026 l 15.007536038804373 10.417743177232161" fill="#ffca12" stroke="none" /><path d="M 82.95767976084542 87.72973835380427 l -14.741759686597673 -10.613886251492422 a39.1651881360204,39.1651881360204 0 0,0 0.39862214250500194,-0.5437201543962533 l 14.556874931579038 10.866068849560177" fill="#ffc912" stroke="none" /><path d="M 83.39014120810768 87.1503855733568 l -14.356144669611766 -11.106110290815058 a39.150608132141755,39.150608132141755 0 0,0 0.4169463690960951,-0.5294795471853296 l 14.1628442199217 11.351582231953437" fill="#ffc812" stroke="none" /><path d="M 83.84228863543731 86.58626213691792 l -13.968344500904813 -11.596178894945396 a39.15450393317137,39.15450393317137 0 0,0 0.43496810484693005,-0.5148650401360407 l 13.76666578257076 11.834902884710552" fill="#ffc912" stroke="none" /><path d="M 84.5562425177563 85.77008943001954 l -13.496182069094738 -12.43541049515954 a39.35174009802009,39.35174009802009 0 0,0 0.4632874328360047,-0.4942027315673454 l 13.280127314288277 12.665882643604936" fill="#ffcb12" stroke="none" /><path d="M 85.57189188830299 84.74124197986013 l -12.43771312030425 -13.153772716242777 a39.1029954519566,39.1029954519566 0 0,0 0.4930554721754145,-0.45824132626049696 l 12.20944976433398 13.365918628577921" fill="#ffc812" stroke="none" /><path d="M 86.65592168130627 83.78471172551755 l -11.461746125723183 -13.927939653739038 a39.03771402502897,39.03771402502897 0 0,0 0.5225413685831704,-0.4225254464112131 l 11.220301358575512 14.123171197414386" fill="#ffc712" stroke="none" /><path d="M 88.70189139769569 82.29822771554957 l -12.801727736034726 -20.057628865826334 a44.79480423846329,44.79480423846329 0 0,0 0.6535366710428504,-0.40924460345146535 l 12.454571912619635 20.27501781060073" fill="#ecff1a" stroke="none" /><line stroke="#e1ed5e" stroke-width="0.3" x1="56.762969772571076" x2="54.21961505331055" y1="26.818313649435495" y2="22.513508569990535" /><path d="M 56.25429882871897 25.957352633546506 a86.0,86.0 0 0,1 42.265352541879196,-11.944610805530505" fill="none" id="id12" stroke="none" /><text fill="#e1ed5e" style="font-size:6.75px; font-family:Arial;" text-anchor="middle"><textPath startOffset="22.20632615414155" xlink:href="#id12">December</textPath></text><path d="M 89.3179101791058 81.91981866633112 l -12.089685815693153 -20.462635634018564 a44.76720345797499,44.76720345797499 0 0,0 0.6668251200021141,-0.3862681500885225 l 11.735663963225718 20.667707941497135" fill="#ecff1a" stroke="none" /><path d="M 89.94658935756843 81.56283822128135 l -11.444464267265275 -20.988244355181358 a44.90569311853379,44.90569311853379 0 0,0 0.6818286995202044,-0.3642092780604905 l 11.081490521216764 21.182132359743598" fill="#ebff1a" stroke="none" /><path d="M 90.58718382345135 81.22770947309562 l -10.713714575465966 -21.366715216861007 a44.902305310638795,44.902305310638795 0 0,0 0.6939089643225061,-0.3404981151795078 l 10.344334344133035 21.547968492175343" fill="#ebff1a" stroke="none" /><path d="M 91.56875222667455 80.76684994638697 l -7.315069583603509 -16.686952481598727 a39.219896435932206,39.219896435932206 0 0,0 0.6206385049258225,-0.2657250180073845 l 7.026747320887378 16.810397027568897" fill="#ffc912" stroke="none" /><path d="M 92.23578459929587 80.48803036053334 l -8.817310825624773 -22.158465762777357 a44.84832436788497,44.84832436788497 0 0,0 0.7197447777872611,-0.2792497918754348 l 8.434582882837836 22.306958258543343" fill="#ebff1a" stroke="none" /><path d="M 93.25333710446033 80.11325718540243 l -5.8375011803449475 -17.206860110081692 a39.17009782247881,39.17009782247881 0 0,0 0.6403698779477225,-0.2111198806156128 l 5.540448480154816 17.30479371495654" fill="#ffc912" stroke="none" /><path d="M 93.94186890950719 79.89281104454417 l -6.912414214995499 -22.94259016240387 a44.96130033282215,44.96130033282215 0 0,0 0.7429529066364038,-0.21688832655729268 l 6.516471090635674 23.058176817879865" fill="#eaff1a" stroke="none" /><path d="M 94.98787191387505 79.60689891045804 l -14.953391590321813 -60.841626768701296 a83.65227424376116,83.65227424376116 0 0,0 1.4012804100318703,-0.33163779950028793 l 13.903887493327408 61.09001048034246" fill="#4dd5ff" stroke="none" /><path d="M 95.692805502759 79.44645832069477 l -0.8708752686825602 -4.155737834409102 a25.246007616802185,25.246007616802185 0 0,0 0.42609681553539147,-0.08547101268567821 l 0.7992120436800322 4.170112803171991" fill="#ff0000" stroke="none" /><path d="M 96.75951476605007 79.25152402106235 l -2.8054730243602815 -17.9631399167167 a39.18089861799889,39.18089861799889 0 0,0 0.6672526057369852,-0.09833568917611478 l 2.4958514381946477 18.008770090053783" fill="#ffc912" stroke="none" /><path d="M 98.55514903715128 79.0497635885617 l -1.253982156869412 -18.182652271859443 a39.225841952818044,39.225841952818044 0 0,0 0.6740082115616964,-0.04065801595798409 l 0.9408118964680925 18.201543557197734" fill="#ffca12" stroke="none" /><path d="M 99.27714615592234 79.0124445844662 l -0.6267005374492292 -18.195811458183783 a39.206600676277034,39.206600676277034 0 0,0 0.6746772004265221,-0.017424921595390313 l 0.3133967018278281 18.20390317192153" fill="#ffc912" stroke="none" /></svg>