<?xml version="1.0" encoding="utf-8" ?>
<svg baseProfile="full" height="200mm" version="1.1" viewBox="0,0,200,200" width="200mm" xmlns="http://www.w3.org/2000/svg" xmlns:ev="http://www.w3.org/2001/xml-events" xmlns:xlink="http://www.w3.org/1999/xlink"><defs /><rect fill="#1a1a1a" height="200" width="200" x="0" y="0" /><text alignment-baseline="middle" fill="#e1ed5e" style="dominant-baseline: central; font-size:9.0px; font-family:Arial;" text-anchor="middle" x="100.0" y="100.0">2022</text><line stroke="#e1ed5e" stroke-width="0.3" x1="100.0" x2="100.0" y1="15.0" y2="10.0" /><path d="M 100.0 14.0 a86.0,86.0 0 0,1 42.46469731375804,11.215312516191453" fill="none" id="id13" stroke="none" /><text fill="#e1ed5e" style="font-size:6.75px; font-family:Arial;" text-anchor="middle"><textPath startOffset="22.20632615414155" xlink:href="#id13">January</textPath></text><path d="M 101.08401301168833 79.027996857942 l 0.7995433751408139 -15.468473159329454 a36.48912300582661,36.48912300582661 0 0,0 0.6269838278600884,0.03782137671508461 l -1.065689251840514 15.452418513234065" fill="#ff9b0e" stroke="none" /><path d="M 101.80526077348638 79.07773832637324 l 1.325688340567327 -15.36420597311282 a36.42129290171715,36.42129290171715 0 0,0 0.6241480073435453,0.059270373950923265 l -1.5899614750011164 15.339110054646719" fill="#ff9a0e" stroke="none" /><path d="M 102.52436894288641 79.15227682838746 l 2.4437401787613506 -20.181843424167067 a41.329256505314895,41.329256505314895 0 0,0 0.7055204637560323,0.09159680476842223 l -2.790775371025229 20.136788296234506" fill="#ffdd14" stroke="none" /><path d="M 103.2404852339499 79.25152402106235 l 3.149516881919694 -20.16601547358867 a41.41047859974172,41.41047859974172 0 0,0 0.7033289655399524,0.11605530566921424 l -3.4961750535985217 20.10881390497983" fill="#ffde14" stroke="none" /><path d="M 103.95276090670814 79.375362276772 l 2.9196064419192167 -15.233864779626785 a36.511116591001745,36.511116591001745 0 0,0 0.6162269594149123,0.12360933089638228 l -3.1813998108012544 15.181351492653194" fill="#ff9b0e" stroke="none" /><path d="M 104.66035177308747 79.52364482259891 l 3.447376973525117 -15.146864180496994 a36.53421715117997,36.53421715117997 0 0,0 0.6119939147215537,0.14483918688423433 l -3.7075945752091943 15.08527908147189" fill="#ff9b0e" stroke="none" /><path d="M 105.36241919743992 79.69619591428918 l 3.957966183480055 -14.986103661126148 a36.49996126613193,36.49996126613193 0 0,0 0.6060768350834762,0.16566369371339668 l -4.215340907787242 14.915753426586457" fill="#ff9b0e" stroke="none" /><path d="M 106.0581310904928 79.89281104454417 l 5.884040547546587 -19.529375205622884 a41.39652982953645,41.39652982953645 0 0,0 0.680508934103479,0.21143743837370443 l -6.219334854360785 19.425197632366658" fill="#ffde14" stroke="none" /><path d="M 106.74666289553966 80.11325718540242 l 4.972267925571743 -14.656462753829125 a36.47692956558406,36.47692956558406 0 0,0 0.5928682141547749,0.20684007864605858 l -5.223818143789791 14.568701822010858" fill="#ff9b0e" stroke="none" /><path d="M 107.4271985657038 80.35727306442388 l 5.486696315097631 -14.510676743389556 a36.5133354248934,36.5133354248934 0 0,0 0.5859813685811005,0.22735166724269396 l -5.735660848678398 14.414082372256315" fill="#ff9b0e" stroke="none" /><path d="M 108.09893153111575 80.62456947434976 l 5.9676818679876895 -14.276748110308924 a36.47380895199105,36.47380895199105 0 0,0 0.577182815714268,0.2471195597468701 l -6.212548441492272 14.171909022599262" fill="#ff9b0e" stroke="none" /><line stroke="#e1ed5e" stroke-width="0.3" x1="143.23703022742887" x2="145.7803849466894" y1="26.81831364943548" y2="22.513508569990506" /><path d="M 143.74570117128098 25.957352633546492 a86.0,86.0 0 0,1 28.547481713284135,27.462654790039103" fill="none" id="id14" stroke="none" /><text fill="#e1ed5e" style="font-size:6.75px; font-family:Arial;" text-anchor="middle"><textPath startOffset="19.985693538727396" xlink:href="#id14">February</textPath></text><path d="M 112.77801427241765 83.33499621200491 l 9.414417804481701 -12.278222971789779 a36.47210463842357,36.47210463842357 0 0,0 0.4949220222271169,0.3862944886712996 l -9.624372381868248 12.114350093895254" fill="#ff9a0e" stroke="none" /><path d="M 116.38621287248628 86.86637796730983 l 12.11881554125808 -9.713284212853338 a36.53105213186487,36.53105213186487 0 0,0 0.38904860670955943,0.4940522220165569 l -12.284218228561603 9.503239596883743" fill="#ff9b0e" stroke="none" /><path d="M 116.82858285166822 87.43820079747576 l 12.323280062970477 -9.198788218353156 a36.37793666902418,36.37793666902418 0 0,0 0.3702535783705705,0.5050254647981177 l -12.479796253854675 8.985300309883545" fill="#ff990e" stroke="none" /><path d="M 117.65298651832404 88.62581576622439 l 13.010426857482834 -8.382887047665484 a36.477209123993525,36.477209123993525 0 0,0 0.33554238898670413,0.5307474786979544 l -13.152796842715494 8.157691921253324" fill="#ff9b0e" stroke="none" /><line stroke="#e1ed5e" stroke-width="0.3" x1="172.23445277983987" x2="176.4835382374775" y1="55.19839476539836" y2="52.563006222186495" /><path d="M 173.08426987136738 54.67131705675599 a86.0,86.0 0 0,1 12.851231095245387,41.99856678651699" fill="none" id="id15" stroke="none" /><text fill="#e1ed5e" style="font-size:6.75px; font-family:Arial;" text-anchor="middle"><textPath startOffset="22.20632615414155" xlink:href="#id15">March</textPath></text><path d="M 118.03404312379186 89.2402003453031 l 13.294038020825651 -7.931731377380186 a36.48043311868487,36.48043311868487 0 0,0 0.3171023874737233,0.5420307704417369 l -13.428600082769702 7.701721194584554" fill="#ff9b0e" stroke="none" /><path d="M 118.3937258080291 89.86733742301442 l 13.569382926293363 -7.475047742095951 a36.49207835466228,36.49207835466228 0 0,0 0.29835210934193734,0.5528011467780968 l -13.696043134853765 7.240365611985395" fill="#ff9b0e" stroke="none" /><path d="M 118.73160827565052 90.50648371742162 l 13.838176406780558 -7.013436919334733 a36.51397510912872,36.51397510912872 0 0,0 0.27931449945476267,0.5630809868990165 l -13.95685091918873 6.774196343936767" fill="#ff9b0e" stroke="none" /><path d="M 119.04729006885535 91.15688171328212 l 14.062070377991125 -6.5286217230480865 a36.50370036211455,36.50370036211455 0 0,0 0.25969372649353073,0.5722007026205778 l -14.172366421448004 6.285599011585446" fill="#ff9b0e" stroke="none" /><path d="M 119.34039704204932 91.81776055985345 l 14.24339494309275 -6.025877732063787 a36.46562323175831,36.46562323175831 0 0,0 0.23959358000769057,0.5801948583809169 l -14.345010209986636 5.779808303229567" fill="#ff9a0e" stroke="none" /><path d="M 119.85752413597 93.16781622104841 l 14.653020588916625 -5.041521233701851 a36.49606236206738,36.49606236206738 0 0,0 0.19927320367185197,0.5958015150067277 l -14.737631086360247 4.78854661577281" fill="#ff9b0e" stroke="none" /><path d="M 120.08093135843002 93.85539295169968 l 14.83852345529591 -4.54047146431306 a36.51765637754645,36.51765637754645 0 0,0 0.17875236794823862,0.6026641221593223 l -14.91448172035585 4.284377955407209" fill="#ff9b0e" stroke="none" /><path d="M 120.28053869075195 94.5502522615342 l 14.971829567034042 -4.023201531665719 a36.50296201210311,36.50296201210311 0 0,0 0.1578382308713314,0.6082150898137813 l -15.038864129775677 3.7648900163030876" fill="#ff9b0e" stroke="none" /><path d="M 120.53481517161879 95.60439243477599 l 15.161675423646159 -3.2454528875312203 a36.505139989602824,36.505139989602824 0 0,0 0.1262394747031695,0.6155885116895665 l -15.215294194264326 2.983988719678242" fill="#ff9b0e" stroke="none" /><path d="M 120.67395015179393 96.31383870115 l 15.299545094075 -2.727905920335009 a36.540834945260606,36.540834945260606 0 0,0 0.10507776194481291,0.6201748991093401 l -15.344234717540036 2.464145232909831" fill="#ff9b0e" stroke="none" /><path d="M 120.78858239683441 97.02765380044208 l 15.250360941403375 -2.180492710891594 a36.40545543972436,36.40545543972436 0 0,0 0.08335809303160042,0.6211146158493062 l -15.285635033492811 1.9176597529776238" fill="#ff9a0e" stroke="none" /><line stroke="#e1ed5e" stroke-width="0.3" x1="184.98032266829074" x2="189.97916517819016" y1="98.17113171792111" y2="98.06355123074" /><path d="M 185.9800911702706 98.14961562048488 a86.0,86.0 0 0,1 -9.607161424134198,41.387399972396054" fill="none" id="id16" stroke="none" /><text fill="#e1ed5e" style="font-size:6.75px; font-family:Arial;" text-anchor="middle"><textPath startOffset="21.466115282336823" xlink:href="#id16">April</textPath></text><path d="M 120.95626037817324 101.35467743843564 l 15.457039665573374 0.9991908156364643 a36.48930138867344,36.48930138867344 0 0,0 -0.045912995934424494,0.6264463514801181 l -15.437550110974612 -1.2651103036133526" fill="#ff9b0e" stroke="none" /><path d="M 120.89721153311464 102.0752229133903 l 15.450850682426353 1.5343654495114505 a36.52684978169395,36.52684978169395 0 0,0 -0.06751848771153164,0.6251373410239289 l -15.42214989321377 -1.8000991124201708" fill="#ff9b0e" stroke="none" /><path d="M 120.81339534386255 102.79330883721812 l 15.313528878636328 2.0551868082543896 a36.45082391115929,36.45082391115929 0 0,0 -0.08881147603053448,0.6211472565072913 l -15.275883351589192 -2.3184795367420903" fill="#ff9a0e" stroke="none" /><path d="M 120.70491114924044 103.5080841355445 l 15.25273911735862 2.5843091880724023 a36.470122965308235,36.470122965308235 0 0,0 -0.11019805002266972,0.6180491867527161 l -15.205994624996762 -2.8464771255583368" fill="#ff9a0e" stroke="none" /><path d="M 120.23288151984713 105.62410040840565 l 25.008429809867973 6.951551620034665 a46.95661055456008,46.95661055456008 0 0,0 -0.22317216572461882,0.7768915863249783 l -24.885065007257257 -7.381000681864225" fill="#d8ff1c" stroke="none" /><path d="M 120.02730092923936 106.31721596034902 l 19.71997846383452 6.220277167134261 a41.67775129577849,41.67775129577849 0 0,0 -0.2217013228550529,0.6823265115209769 l -19.60998488996322 -6.558802578633034" fill="#ffe215" stroke="none" /><path d="M 119.79798401119884 107.00284435728193 l 15.02202761668104 5.313516834385907 a36.93407590246859,36.93407590246859 0 0,0 -0.21716487219744557,0.5975444596860224 l -14.928338483478369 -5.571309091078061" fill="#ffa10e" stroke="none" /><path d="M 119.54520255179757 107.68017299344265 l 16.75815622716667 6.585019445804678 a39.00550696969543,39.00550696969543 0 0,0 -0.25093057243671,0.6227891021214487 l -16.64232304047257 -6.87250791576894" fill="#ffbe11" stroke="none" /><path d="M 119.26925614724726 108.34839909993367 l 15.105552683692371 6.544475898025426 a37.462317171639036,37.462317171639036 0 0,0 -0.2614493603870679,0.5894992870574605 l -14.99066223857403 -6.803523521575574" fill="#ffa80f" stroke="none" /><line stroke="#e1ed5e" stroke-width="0.3" x1="174.80103733775053" x2="179.2010983576182" y1="140.37084112569926" y2="142.7455964860345" /><path d="M 175.68104954172406 140.8457921977663 a86.0,86.0 0 0,1 -30.038265399797805,32.042727171017184" fill="none" id="id17" stroke="none" /><text fill="#e1ed5e" style="font-size:6.75px; font-family:Arial;" text-anchor="middle"><textPath startOffset="22.206326154141568" xlink:href="#id17">May</textPath></text><path d="M 117.55443506779139 111.5257021239791 l 15.328188693007894 10.064017229463657 a39.33678847026917,39.33678847026917 0 0,0 -0.3765034440780693,0.5628215642385959 l -15.152682143519103 -10.32637570790806" fill="#ffc212" stroke="none" /><path d="M 116.71984013943494 112.70617746262583 l 13.03558498026958 9.90634208862973 a37.37260178941596,37.37260178941596 0 0,0 -0.3936459399353632,0.5088404413731644 l -12.863132223116148 -10.129260524116146" fill="#ffa70f" stroke="none" /><path d="M 116.27256486870786 113.27417163493432 l 12.708529145465954 10.366847418680825 a37.40055604067639,37.40055604067639 0 0,0 -0.41123514266656563,0.49535922097141477 l -12.528198002905846 -10.58406789676601" fill="#ffa80f" stroke="none" /><path d="M 115.32070863581623 114.36230785411682 l 18.692809787649143 17.5234641693427 a46.62211806723771,46.62211806723771 0 0,0 -0.5539006199339154,0.5807625855352143 l -18.38840261633626 -17.84263387146042" fill="#dcff1b" stroke="none" /><path d="M 114.81725581225074 114.88116024355365 l 11.528504475604029 11.578225053531654 a37.33896296691593,37.33896296691593 0 0,0 -0.459358231463866,0.44957871157917084 l -11.32749629176437 -11.774953868033396" fill="#ffa70f" stroke="none" /><path d="M 114.29624159901734 115.38237550388516 l 25.856260239491288 27.82064792171453 a58.980714110668025,58.980714110668025 0 0,0 -0.7496180556620662,0.6847583205747456 l -25.37354263436236 -28.261599008875862" fill="#4cff2c" stroke="none" /><path d="M 113.48314897796784 116.09983520530334 l 10.482350504889466 12.516669211971026 a37.326257387082315,37.326257387082315 0 0,0 -0.49613682982685997,0.4082868341241005 l -10.265343546517915 -12.695251164952305" fill="#ffa60f" stroke="none" /><path d="M 112.92097659922987 116.55440617244103 l 9.958083421521268 12.758335749074869 a37.18451594939121,37.18451594939121 0 0,0 -0.5079604462264675,0.3894824096218426 l -9.736994246801306 -12.927857500524084" fill="#ffa40f" stroke="none" /><path d="M 112.34349029814194 116.9893568818739 l 9.619598069964878 13.240240865699048 a37.36583774847469,37.36583774847469 0 0,0 -0.5236069010194602,0.3735796212519114 l -9.390263841096532 -13.40386474879518" fill="#ffa70f" stroke="none" /><path d="M 111.45004920935366 117.60387380957326 l 8.98645159073908 13.816216586211466 a37.481630773373176,37.481630773373176 0 0,0 -0.5438730945525996,0.3471255414083136 l -8.747296694139548 -13.968856556443587" fill="#ffa90f" stroke="none" /><line stroke="#e1ed5e" stroke-width="0.3" x1="143.8653032363475" x2="146.44561519142675" y1="172.8068346515853" y2="177.08958963109032" /><path d="M 144.38136562736335 173.6633856474863 a86.0,86.0 0 0,1 -40.68145358897372,12.25698825130547" fill="none" id="id18" stroke="none" /><text fill="#e1ed5e" style="font-size:6.75px; font-family:Arial;" text-anchor="middle"><textPath startOffset="21.466115282336833" xlink:href="#id18">June</textPath></text><path d="M 110.8373102113329 117.98757091392108 l 9.286048134415413 15.412814256549536 a38.99404160441941,38.99404160441941 0 0,0 -0.5779142183691093,0.3414419067741701 l -9.019366045017922 -15.570374735617456" fill="#ffbe11" stroke="none" /><path d="M 108.92500713936063 119.00905698771935 l 6.941880262839893 14.785265205703912 a37.333822846676306,37.333822846676306 0 0,0 -0.584064554546794,0.26811539043504384 l -6.68634771252568 -14.90256766647303" fill="#ffa70f" stroke="none" /><path d="M 108.2653958097858 119.30500536409082 l 6.482677572651081 15.141213826146288 a37.47062429418013,37.47062429418013 0 0,0 -0.5951201253598513,0.24876026066608908 l -6.221085987793768 -15.25055912983235" fill="#ffa80f" stroke="none" /><path d="M 106.91757812671514 119.82793768551818 l 5.400737877506903 15.480200169690738 a37.39526050159713,37.39526050159713 0 0,0 -0.6095966435425577,0.20680827899152798 l -5.133471501027119 -15.57087143558039" fill="#ffa70f" stroke="none" /><path d="M 105.53697534728816 120.25689768951611 l 5.076366560622074 18.571770976615575 a40.25305624220899,40.25305624220899 0 0,0 -0.6699441839380168,0.1769383480059647 l -4.75593193387256 -18.656400673925123" fill="#ffcf13" stroke="none" /><path d="M 104.48393922423573 120.51570834832081 l 3.5158922133390758 16.0865291936001 a37.46626610839162,37.46626610839162 0 0,0 -0.6312326122622888,0.1322809312592917 l -3.238468139647409 -16.14466610558593" fill="#ffa80f" stroke="none" /><path d="M 101.98527174616119 120.90594882070398 l 1.4627945144936119 15.40399056922205 a36.47328967118222,36.47328967118222 0 0,0 -0.6255267869397626,0.053973083256613825 l -1.1974234098123075 -15.426887904757328" fill="#ff9a0e" stroke="none" /><path d="M 101.26447882468166 120.96189622390904 l 1.0090469776043025 16.727475080427247 a37.75788167905857,37.75788167905857 0 0,0 -0.6490974189320107,0.03355092230386427 l -0.7209614902588122 -16.742365809493315" fill="#ffac10" stroke="none" /><line stroke="#e1ed5e" stroke-width="0.3" x1="102.19456741930631" x2="102.32365962044197" y1="184.97166512339345" y2="189.96999836594603" /><path d="M 102.22038585953345 185.97133177190398 a86.0,86.0 0 0,1 -42.740103519485714,-10.115201625700543" fill="none" id="id19" stroke="none" /><text fill="#e1ed5e" style="font-size:6.75px; font-family:Arial;" text-anchor="middle"><textPath startOffset="22.20632615414155" xlink:href="#id19">July</textPath></text><path d="M 100.54218724476979 120.99299961872073 l 0.4019458801522602 15.562980852427557 a36.56817052526077,36.56817052526077 0 0,0 -0.6293909949860977,0.010835536759666626 l -0.13399519527349452 -15.567593866466384" fill="#ff9c0e" stroke="none" /><path d="M 99.45781275523022 120.99299961872073 l -0.401598990816271 15.549549611157715 a36.554734805173624,36.554734805173624 0 0,0 -0.6288800826209434,-0.0216599016029267 l 0.6691994251118575 -15.540332911128695" fill="#ff9c0e" stroke="none" /><path d="M 98.73552117531835 120.96189622390904 l -0.9592784895394927 15.902438028266404 a36.93134490441239,36.93134490441239 0 0,0 -0.6342294412880197,-0.043740175572037736 l 1.2328706916064425 -15.883569508178082" fill="#ffa10e" stroke="none" /><path d="M 98.01472825383883 120.90594882070398 l -0.7913096988787994 8.332904600126108 a29.370392470747266,29.370392470747266 0 0,0 -0.5028874170181536,-0.05212633695652002 l 0.9346297125025465 -8.318048894713828" fill="#ff3304" stroke="none" /><path d="M 96.93821686468263 120.77559828337769 l -2.2563992137249342 15.310700189881173 a36.47607436387296,36.47607436387296 0 0,0 -0.6203783618630568,-0.09689034139760362 l 2.519613439196508 -15.269591541136464" fill="#ff9b0e" stroke="none" /><path d="M 96.22490169976321 120.6578951692458 l -2.7514768050359364 15.056487243121177 a36.30583002358649,36.30583002358649 0 0,0 -0.613797401820404,-0.117635732909006 l 3.0102418214280355 -15.006894311863704" fill="#ff980e" stroke="none" /><path d="M 95.51606077576429 120.51570834832081 l -2.7841154292207646 12.738375186985055 a34.03907593074071,34.03907593074071 0 0,0 -0.5713375428034518,-0.13003456462672203 l 3.0029731214170794 -12.688563888780646" fill="#ff780b" stroke="none" /><path d="M 94.46302465271185 120.25689768951611 l -12.54904411993475 45.910390943539966 a68.59456381681363,68.59456381681363 0 0,0 -1.1362814661584988,-0.32112449234517854 l 13.337456754197863 -45.68757765785627" fill="#39ff85" stroke="none" /><path d="M 94.11515582081647 120.15858648285463 l -7.226901214732284 24.755814887258435 a46.7891153764472,46.7891153764472 0 0,0 -0.771184940742432,-0.23235169651916265 l 7.651961129914962 -24.627747821633548" fill="#daff1c" stroke="none" /><path d="M 92.40401165467489 119.57807347666478 l -11.252465003324373 29.002359747466738 a52.10875824542855,52.10875824542855 0 0,0 -0.8334396975366426,-0.3316428558849011 l 11.750025776902874 -28.80437004717577" fill="#99ff23" stroke="none" /><line stroke="#e1ed5e" stroke-width="0.3" x1="58.666819895761336" x2="56.23545636021788" y1="174.27360380694188" y2="178.64263932499728" /><path d="M 58.180547188652646 175.14741091055294 a86.0,86.0 0 0,1 -31.652253787137756,-30.449443065178592" fill="none" id="id20" stroke="none" /><text fill="#e1ed5e" style="font-size:6.75px; font-family:Arial;" text-anchor="middle"><textPath startOffset="22.20632615414155" xlink:href="#id20">August</textPath></text><path d="M 89.4739219176387 118.17145234162733 l -15.430723168797696 26.6384733672573 a51.78498791375671,51.78498791375671 0 0,0 -0.7674834303413334,-0.4534427386348814 l 15.886974470167411 -26.36891205632867" fill="#9dff22" stroke="none" /><path d="M 88.8546689885994 117.79835938074946 l -10.771373352492851 17.201173635470514 a41.29539007598521,41.29539007598521 0 0,0 -0.5992122308439797,-0.3824455964700853 l 11.065867385383754 -17.013213610176624" fill="#ffdd14" stroke="none" /><path d="M 82.6465618267979 111.8261652097733 l -10.55921295505369 7.195980165157162 a33.77807140250472,33.77807140250472 0 0,0 -0.3232994027199078,-0.4832887412272707 l 10.681515463184327 -7.013154509724071" fill="#ff740a" stroke="none" /><path d="M 82.44556493220864 111.52570212397912 l -10.762266992255984 7.066173479946782 a33.874672751619975,33.874672751619975 0 0,0 -0.3158331514029191,-0.49018006471175185 l 10.88230500703595 -6.879871815313582" fill="#ff750a" stroke="none" /><path d="M 82.05923443525364 110.91462005526583 l -10.869247301194065 6.612521865419844 a33.722656260198576,33.722656260198576 0 0,0 -0.2974324219830247,-0.49851384752449873 l 10.981460598875323 -6.424445924009235" fill="#ff730a" stroke="none" /><line stroke="#e1ed5e" stroke-width="0.3" x1="26.63291911575756" x2="22.317208475507996" y1="142.92168965132927" y2="145.44649492493687" /><path d="M 25.769776987707644 143.4266507060508 a86.0,86.0 0 0,1 -11.730757126820373,-40.83630448921669" fill="none" id="id21" stroke="none" /><text fill="#e1ed5e" style="font-size:6.75px; font-family:Arial;" text-anchor="middle"><textPath startOffset="21.46611528233685" xlink:href="#id21">September</textPath></text><path d="M 81.69416730710424 110.29060199501025 l -16.19762542965588 9.10547579873452 a39.581516597973774,39.581516597973774 0 0,0 -0.32875953544633235,-0.5967940514973533 l 16.351961374553728 -8.825311228839345" fill="#ffc612" stroke="none" /><path d="M 81.35079622478065 109.6543875284942 l -20.254869016678633 10.485614141111268 a43.808064863093506,43.808064863093506 0 0,0 -0.34091296352458333,-0.6726536194552425 l 20.432360649989484 -10.135406309953341" fill="#fffe18" stroke="none" /><path d="M 81.18737489456691 109.33194174019688 l -16.80129505014662 8.334227981960153 a39.75480928768322,39.75480928768322 0 0,0 -0.29881748476017717,-0.615652525421355 l 16.942265791521518 -8.043786500573512" fill="#ffc812" stroke="none" /><path d="M 80.0844068197444 106.66101706037122 l -18.07776858023702 6.046333836834089 a40.06210559479329,40.06210559479329 0 0,0 -0.2131070302639849,-0.6558759986997775 l 18.179167861517254 -5.734258938156508" fill="#ffcc13" stroke="none" /><path d="M 79.97269907076064 106.31721596034903 l -22.605785894939103 7.130548043208838 a44.70371851259496,44.70371851259496 0 0,0 -0.2251645994311723,-0.7358509388776079 l 22.725177266876404 -6.740370131779183" fill="#f5ff19" stroke="none" /><path d="M 79.86692584326677 105.97154293290107 l -12.123314546197618 3.5958191351255584 a33.6453418632547,33.6453418632547 0 0,0 -0.15990727868747742,-0.5566582149752435 l 12.183414461771198 -3.386603444645719" fill="#ff720a" stroke="none" /><path d="M 79.76711848015287 105.62410040840567 l -29.1722394084641 8.108958845546123 a51.27828868452619,51.27828868452619 0 0,0 -0.22907213825700948,-0.852462643381441 l 29.307499623062885 -7.605605268989143" fill="#a3ff21" stroke="none" /><path d="M 79.50377843672027 104.57218783832718 l -27.191708575354713 6.065781386473239 a48.86005597760895,48.86005597760895 0 0,0 -0.17604967159635315,-0.8224454557446392 l 27.29209228567551 -5.596822111312436" fill="#c0ff1e" stroke="none" /><path d="M 79.4281124754447 104.21870165774334 l -34.62098144376378 7.099766204494891 a56.34146341463415,56.34146341463415 0 0,0 -0.18665139933357783,-0.9517314639640236 l 34.73806277607303 -6.502771013462913" fill="#69ff28" stroke="none" /><path d="M 79.18660465613746 102.79330883721812 l -37.49906414212101 5.032646789486152 a58.83526589364254,58.83526589364254 0 0,0 -0.12607134134639553,-1.0049126332299592 l 37.58013699271425 -4.386416401968784" fill="#4eff2c" stroke="none" /><path d="M 79.10278846688536 102.07522291339032 l -27.62342316212596 2.7431775096634867 a48.75929628148741,48.75929628148741 0 0,0 -0.07575198697282028,-0.835916863933817 l 27.666549745375857 -2.2672792571811033" fill="#c2ff1e" stroke="none" /><path d="M 79.04373962182676 101.35467743843564 l -37.78159857864179 2.4423193002424255 a58.86045581767293,58.86045581767293 0 0,0 -0.05665640954754229,-1.011638252094595 l 37.81804133907686 -1.7916093318123927" fill="#4dff2c" stroke="none" /><path d="M 79.0235259727143 100.99374915477108 l -27.703036270341734 1.3124164167168624 a48.734106357457016,48.734106357457016 0 0,0 -0.032484454590815746,-0.8382794315596812 l 27.72152285778375 -0.8353597381431845" fill="#c2ff1e" stroke="none" /><line stroke="#e1ed5e" stroke-width="0.3" x1="15.007084014347285" x2="10.007500721073583" y1="101.09737516637583" y2="101.16192664675087" /><path d="M 14.007167355692545 101.11028546245083 a86.0,86.0 0 0,1 10.666146001902534,-42.60595125391555" fill="none" id="id22" stroke="none" /><text fill="#e1ed5e" style="font-size:6.75px; font-family:Arial;" text-anchor="middle"><textPath startOffset="22.20632615414155" xlink:href="#id22">October</textPath></text><path d="M 79.00175016825051 100.2711162175752 l -53.171497874637964 0.6865169955632823 a74.17592962814874,74.17592962814874 0 0,0 -0.005495033084578321,-1.2768521669527115 l 53.175437205012045 0.22884464959310455" fill="#40ffc6" stroke="none" /><path d="M 79.00486145842228 99.54816195383935 l -25.259644890686655 -0.5436148264283849 a46.26549380247901,46.26549380247901 0 0,0 0.023988230127707198,-0.796052574045694 l 25.2465449661033 0.9783375478990732" fill="#e1ff1b" stroke="none" /><path d="M 79.03285615573316 98.82574320788736 l -28.696734657707093 -1.6071495399446556 a49.741703318672535,49.741703318672535 0 0,0 0.05523557732501253,-0.8544699333727143 l 28.66481848937767 2.100878537570382" fill="#b6ff1f" stroke="none" /><path d="M 79.08570108090925 98.10471618934814 l -37.65577290390472 -3.412420231653459 a58.81007596961216,58.81007596961216 0 0,0 0.1000411882133828,-1.0074011127333748 l 37.59145459000911 4.060096875091264" fill="#4eff2c" stroke="none" /><path d="M 79.21141760316559 97.0276538004421 l -27.429956781108984 -3.9219282121315797 a48.70891643342663,48.70891643342663 0 0,0 0.12581769778432939,-0.8289814270345758 l 27.358383189885352 4.393508751558247" fill="#c2ff1e" stroke="none" /><path d="M 79.26566170972629 96.67025291283419 l -27.3832544473307 -4.3975028504233 a48.734106357457016,48.734106357457016 0 0,0 0.1401410458762997,-0.8271203856916971 l 27.303501539934178 4.868209024430825" fill="#c2ff1e" stroke="none" /><path d="M 79.3925641242962 95.95851677861259 l -27.21565801577355 -5.33747264303983 a48.734106357457016,48.734106357457016 0 0,0 0.1685288150777175,-0.8218063541094011 l 27.11974990478084 5.805154653312634" fill="#c2ff1e" stroke="none" /><path d="M 79.54389044137918 95.25157060432595 l -40.266064517029335 -9.3468684185939 a62.336665333866456,62.336665333866456 0 0,0 0.25162402673479056,-1.0431440384488757 l 40.09920769003373 10.038597688702172" fill="#30ff38" stroke="none" /><path d="M 79.71946130924805 94.55025226153421 l -24.375569493962566 -6.5501566180840305 a46.24030387844862,46.24030387844862 0 0,0 0.21317491183168782,-0.7669035793969945 l 24.25920781156452 6.968771500899967" fill="#e1ff1b" stroke="none" /><path d="M 79.91906864156998 93.8553929516997 l -26.520318383404383 -8.11500882868289 a48.734106357457016,48.734106357457016 0 0,0 0.2523603247538364,-0.8000511931471772 l 26.37670257488234 8.570310188256483" fill="#c2ff1e" stroke="none" /><path d="M 80.14247586403 93.16781622104843 l -23.867140165024317 -8.211733082578336 a46.24030387844862,46.24030387844862 0 0,0 0.2654345797602474,-0.7504193007871464 l 23.72225250445426 8.621350009792094" fill="#e1ff1b" stroke="none" /><path d="M 80.38941819471856 92.48833698450439 l -58.83174541584431 -22.534989046486853 a84.0,84.0 0 0,0 0.5288258004732356,-1.3458039804169464 l 58.435126065489385 23.544342031799562" fill="#4dd2ff" stroke="none" /><path d="M 80.803312248108 91.48605970444005 l -25.352522848660254 -11.244120270385642 a48.734106357457016,48.734106357457016 0 0,0 0.3467029797459844,-0.7639140586487886 l 25.15521755195092 11.678856337876502" fill="#c2ff1e" stroke="none" /><path d="M 81.10775173730289 90.83032412892265 l -24.950458221386867 -12.110131708184108 a48.734106357457016,48.734106357457016 0 0,0 0.3727926768566142,-0.7515272884254407 l 24.738305531576838 12.537818585108509" fill="#c2ff1e" stroke="none" /><path d="M 81.43458229118936 90.18545643968196 l -24.518822347941438 -12.961790235797878 a48.734106357457016,48.734106357457016 0 0,0 0.39844054063814055,-0.7382498091716627 l 24.292073708084825 13.381921028302013" fill="#c2ff1e" stroke="none" /><line stroke="#e1ed5e" stroke-width="0.3" x1="26.266209847984243" x2="21.928928074336255" y1="57.711370442889674" y2="55.22380399835377" /><path d="M 25.398753493254645 57.213857153982495 a86.0,86.0 0 0,1 29.58750427330803,-30.492523968695096" fill="none" id="id23" stroke="none" /><text fill="#e1ed5e" style="font-size:6.75px; font-family:Arial;" text-anchor="middle"><textPath startOffset="21.46611528233685" xlink:href="#id23">November</textPath></text><path d="M 81.78341655067845 89.55222093294921 l -24.058126802522608 -13.798086468799978 a48.734106357457016,48.734106357457016 0 0,0 0.42361617328038137,-0.7240973573362702 l 23.8170509547719 14.21016323849014" fill="#c2ff1e" stroke="none" /><path d="M 82.15384107792192 88.93136811851018 l -21.471048459229486 -13.316878581128694 a46.26549380247901,46.26549380247901 0 0,0 0.4255817451758279,-0.6731681171909926 l 21.238639117807697 13.684494346033903" fill="#e1ff1b" stroke="none" /><path d="M 82.54541684631803 88.32363383020206 l -23.05177455282348 -15.420646724847094 a48.734106357457016,48.734106357457016 0 0,0 0.47243198770836903,-0.6932356469166361 l 22.782918099446373 15.815160395034146" fill="#c2ff1e" stroke="none" /><path d="M 82.95767976084542 87.72973835380427 l -22.50731057574074 -16.204987691877054 a48.734106357457016,48.734106357457016 0 0,0 0.4960143130631235,-0.6765629655860096 l 22.225033650163983 16.590013101134563" fill="#c2ff1e" stroke="none" /><path d="M 83.39014120810768 87.1503855733568 l -21.956094828467027 -16.985535903431607 a48.75929628148741,48.75929628148741 0 0,0 0.5192770307840106,-0.6594290956875858 l 21.660463717089044 17.36095739307224" fill="#c2ff1e" stroke="none" /><path d="M 83.84228863543731 86.58626213691792 l -21.377795643877626 -17.74732450577313 a48.784486205517794,48.784486205517794 0 0,0 0.5419477551538618,-0.6414952029807424 l 21.06913727523664 18.11267865838299" fill="#c1ff1e" stroke="none" /><path d="M 84.31358615837235 86.03803664274999 l -30.143504567318082 -26.82974645939368 a61.35425829668133,61.35425829668133 0 0,0 0.708952426236929,-0.7828429761780704 l 29.67720850046511 27.34464222284131" fill="#33ff2f" stroke="none" /><path d="M 84.80347519578584 85.50635884689758 l -16.442141591444827 -15.681644526307528 a43.721311475409834,43.721311475409834 0 0,0 0.5241055493394092,-0.5401368387726934 l 16.169771778402296 15.962345560630345" fill="#fffd17" stroke="none" /><path d="M 85.31137513191541 84.99185889309783 l -13.179237986398167 -13.465921089119748 a39.84206317473011,39.84206317473011 0 0,0 0.49426309838425875,-0.47548070904151224 l 12.945491644401482 13.690784884923573" fill="#ffc912" stroke="none" /><path d="M 86.10567301691215 84.25364557470407 l -35.33303463112302 -40.042708574523054 a74.40263894442222,74.40263894442222 0 0,0 0.9676105758460375,-0.8391023563807317 l 34.63853025663021 40.64497592432347" fill="#40ffc8" stroke="none" /><path d="M 87.22198572758235 83.33499621200491 l -9.503041402117889 -12.393805296149889 a36.617752898840465,36.617752898840465 0 0,0 0.5035008090602405,-0.3792263707177006 l 9.288294439299259 12.555548256373443" fill="#ff9d0e" stroke="none" /><path d="M 88.09926311788651 82.69761687909137 l -16.302248923678853 -23.70170514683445 a49.76689324270292,49.76689324270292 0 0,0 0.709996551880224,-0.4793928411858496 l 15.891847677392088 23.978809900318964" fill="#b5ff1f" stroke="none" /><path d="M 88.39885842347998 82.49532879139004 l -15.864016070251294 -23.93681548718355 a49.71651339464214,49.71651339464214 0 0,0 0.717416329600654,-0.466627537005755 l 15.449632714866354 24.206341948348843" fill="#b6ff1f" stroke="none" /><path d="M 89.00827224532344 82.1063720568725 l -15.202073691893725 -24.74772453229828 a50.043982407037184,50.043982407037184 0 0,0 0.7378816814645386,-0.44456545686790455 l 14.773829944211537 25.005736598624807" fill="#b2ff20" stroke="none" /><line stroke="#e1ed5e" stroke-width="0.3" x1="56.762969772571076" x2="54.21961505331055" y1="26.818313649435495" y2="22.513508569990535" /><path d="M 56.25429882871897 25.957352633546506 a86.0,86.0 0 0,1 42.265352541879196,-11.944610805530505" fill="none" id="id24" stroke="none" /><text fill="#e1ed5e" style="font-size:6.75px; font-family:Arial;" text-anchor="middle"><textPath startOffset="22.20632615414155" xlink:href="#id24">December</textPath></text><path d="M 89.3179101791058 81.91981866633112 l -14.735389796915236 -24.9406739708747 a49.96841263494602,49.96841263494602 0 0,0 0.7442991783682046,-0.4311461252986122 l 14.303893886081712 25.190624253563357" fill="#b3ff20" stroke="none" /><path d="M 89.94658935756843 81.56283822128135 l -2.435972350785099 -4.4673810627363055 a26.088364654138346,26.088364654138346 0 0,0 0.3961144903784708,-0.21159064244664713 l 2.358712813878323 4.5086504316847025" fill="#ff0000" stroke="none" /><path d="M 90.26544431104013 81.39251694778311 l -12.856152515247688 -24.57437685784582 a48.734106357457016,48.734106357457016 0 0,0 0.7466517912974071,-0.3824640476154417 l 12.431240236361518 24.79203343077377" fill="#c2ff1e" stroke="none" /><path d="M 90.91171255644093 81.06846463323043 l -12.743952045006655 -26.54653919682561 a50.44702119152339,50.44702119152339 0 0,0 0.7860649766141353,-0.3690680465009334 l 12.28510885709291 26.76197222596655" fill="#adff20" stroke="none" /><path d="M 91.23893434514133 80.91482961587045 l -11.581000821656449 -25.228138060748623 a48.75929628148741,48.75929628148741 0 0,0 0.7657946573624316,-0.34358974038005463 l 11.145024045827244 25.42374813164521" fill="#c2ff1e" stroke="none" /><path d="M 91.90106846888425 80.62456947434976 l -10.70574475884394 -25.611824597280965 a48.75929628148741,48.75929628148741 0 0,0 0.7771677606158636,-0.3170262430755572 l 10.263293128639695 25.7923117265401" fill="#c2ff1e" stroke="none" /><path d="M 92.23578459929587 80.48803036053334 l -13.988626387674067 -35.154312353233415 a58.83526589364254,58.83526589364254 0 0,0 0.9442130998989475,-0.3663400135301503 l 13.381430122775443 35.38989507065412" fill="#4eff2c" stroke="none" /><path d="M 92.91201910852362 80.23233633223022 l -9.360895995420428 -26.106594600017434 a48.734106357457016,48.734106357457016 0 0,0 0.7920870245568541,-0.2763436098314651 l 8.91012696680029 26.26385906302111" fill="#c2ff1e" stroke="none" /><path d="M 93.25333710446033 80.11325718540243 l -8.91821972517159 -26.287713612578806 a48.75929628148741,48.75929628148741 0 0,0 0.7971382851812592,-0.26280395970676884 l 8.464398617747921 26.43733129654481" fill="#c2ff1e" stroke="none" /><path d="M 93.94186890950719 79.89281104454417 l -8.000802475768788 -26.554996049528413 a48.734106357457016,48.734106357457016 0 0,0 0.8052957922164184,-0.23508792441258375 l 7.542516465828948 26.688782302859696" fill="#c2ff1e" stroke="none" /><path d="M 97.83486435360386 79.11191278185805 l -1.4647778943231813 -14.131404867291552 a35.207117153138746,35.207117153138746 0 0,0 0.603340800524046,-0.057294478947560165 l 1.221311966708899 14.154524890754292" fill="#ff890c" stroke="none" /><path d="M 98.55514903715128 79.0497635885617 l -1.0641405332136475 -15.429962203066513 a36.466613354658136,36.466613354658136 0 0,0 0.6265970499358327,-0.03779804521444592 l 0.798381434438192 15.445993517661265" fill="#ff9a0e" stroke="none" /><path d="M 99.27714615592234 79.0124445844662 l -0.5280503691043135 -15.331572868524688 a36.340663734506194,36.340663734506194 0 0,0 0.6253594253804732,-0.016151188967559963 l 0.26406430852896123 15.338390849634608" fill="#ff990e" stroke="none" /></svg>